<svg width="1042" height="1028" viewBox="0 0 1042 1028" fill="none" xmlns="http://www.w3.org/2000/svg">
<path d="M790.877 270.402C947.104 329.995 1049.51 532.029 997.253 597.149C944.996 662.268 764.978 727.894 597.073 756.126C429.168 784.359 190.864 795.984 161.992 665.889C133.12 535.794 310.804 515.996 468.024 417.123C625.244 318.251 641.991 213.611 790.877 270.402Z" fill="#A365EE"/>
<path fill-rule="evenodd" clip-rule="evenodd" d="M584.776 269.15C586.536 267.086 587.728 264.556 587.529 261.722C586.955 253.555 575.575 255.352 573.361 259.474C571.147 263.595 571.41 274.05 574.271 274.787C575.412 275.081 577.843 274.361 580.317 272.872L578.764 283.845H587.932L584.776 269.15Z" fill="#B28B67"/>
<path fill-rule="evenodd" clip-rule="evenodd" d="M569.299 253.76C569.489 253.093 570 252.522 570.688 252.353C570.855 252.312 571.027 252.295 571.199 252.302C571.26 252.305 571.278 252.322 571.307 252.279C571.328 252.247 571.328 252.17 571.337 252.132C571.364 252.015 571.399 251.9 571.441 251.788C571.585 251.406 571.827 251.067 572.119 250.782C572.664 250.249 573.402 249.88 574.168 249.814C574.587 249.777 575.003 249.845 575.399 249.982C575.605 250.052 575.804 250.14 575.997 250.237C576.056 250.266 576.245 250.409 576.304 250.4C576.368 250.39 576.498 250.229 576.551 250.189C577.201 249.691 578.003 249.495 578.813 249.501C579.727 249.508 580.607 249.553 581.369 250.11C581.53 250.228 581.684 250.357 581.83 250.492C581.907 250.564 581.982 250.638 582.053 250.715C582.096 250.762 582.138 250.81 582.178 250.859C582.246 250.942 582.235 250.969 582.331 250.911C582.698 250.688 583.123 250.584 583.551 250.637C583.805 250.668 584.052 250.744 584.287 250.845C584.367 250.879 584.552 251.015 584.637 251.016C584.722 251.018 584.904 250.891 584.991 250.859C585.462 250.686 585.969 250.643 586.463 250.723C586.973 250.806 587.474 251.009 587.906 251.29C588.114 251.425 588.295 251.575 588.441 251.776C588.504 251.862 588.561 251.954 588.632 252.035C588.674 252.082 588.756 252.13 588.779 252.19C588.765 252.154 589.336 251.934 589.39 251.92C589.677 251.845 589.97 251.86 590.251 251.953C590.78 252.126 591.234 252.516 591.608 252.916C591.8 253.121 591.968 253.348 592.11 253.59C592.179 253.705 592.241 253.824 592.298 253.946C592.326 254.005 592.344 254.079 592.381 254.132C592.428 254.2 592.46 254.201 592.545 254.231C592.978 254.383 593.372 254.639 593.672 254.985C593.976 255.336 594.173 255.767 594.256 256.221C594.261 256.248 594.264 256.359 594.279 256.374C594.301 256.394 594.388 256.385 594.421 256.389C594.535 256.402 594.648 256.422 594.76 256.448C594.965 256.497 595.166 256.569 595.355 256.662C596.094 257.027 596.623 257.712 596.881 258.482C597.152 259.291 597.148 260.217 596.823 261.01C596.771 261.138 596.709 261.263 596.635 261.38C596.591 261.453 596.576 261.453 596.605 261.528C596.638 261.613 596.697 261.695 596.736 261.777C596.862 262.046 596.95 262.331 597.006 262.622C597.097 263.1 597.142 263.602 597.052 264.083C597.01 264.307 596.937 264.525 596.826 264.724C596.77 264.826 596.703 264.922 596.628 265.011C596.589 265.057 596.548 265.101 596.505 265.144C596.48 265.168 596.448 265.189 596.427 265.216C596.376 265.282 596.365 265.228 596.391 265.324C596.428 265.459 596.512 265.593 596.563 265.724C596.616 265.86 596.664 265.997 596.708 266.136C596.796 266.417 596.871 266.702 596.918 266.993C597.008 267.552 596.992 268.147 596.728 268.659C596.615 268.878 596.452 269.071 596.256 269.22C596.159 269.293 596.055 269.356 595.946 269.408C595.89 269.435 595.818 269.446 595.792 269.501C595.765 269.559 595.806 269.675 595.815 269.74C595.896 270.308 595.937 270.904 595.768 271.461C595.612 271.974 595.27 272.426 594.825 272.726C593.961 273.307 592.798 273.274 591.891 272.809C591.654 272.688 591.433 272.537 591.236 272.359C590.733 273.035 589.699 273.014 588.965 272.821C588.05 272.581 587.316 271.946 586.893 271.111C586.315 271.814 585.101 271.586 584.7 270.823C584.602 270.636 584.544 270.431 584.515 270.222C584.5 270.113 584.509 270.002 584.498 269.894C584.484 269.755 584.391 269.621 584.338 269.487C584.234 269.226 584.17 268.957 584.167 268.676C584.166 268.529 584.184 268.386 584.198 268.24C584.211 268.109 584.174 267.987 584.154 267.858C584.388 267.896 584.674 267.833 584.895 267.765C585.112 267.699 585.315 267.523 585.469 267.363C585.824 266.99 586.041 266.502 586.19 266.016C586.516 264.949 586.382 263.669 585.308 263.084C584.808 262.811 583.309 262.812 582.713 262.947C582.086 263.089 581.376 264.47 581.341 264.6C581.319 264.68 581.33 264.779 581.256 264.833C581.094 264.951 580.826 264.746 580.706 264.645C580.5 264.471 580.352 264.24 580.224 264.005C579.946 263.494 579.722 262.946 579.564 262.386C579.441 261.955 579.363 261.51 579.204 261.089C579.045 260.671 578.794 260.297 578.405 260.06C577.981 259.802 577.496 259.666 577.031 259.504C576.57 259.343 576.117 259.147 575.76 258.806C575.681 258.732 575.605 258.652 575.542 258.564C575.492 258.494 575.442 258.361 575.366 258.317C575.248 258.248 575.076 258.427 574.973 258.491C574.469 258.811 574.048 259.258 573.709 259.745C573.371 260.23 573.094 260.697 572.869 261.238C572.702 261.64 572.598 262.154 572.304 262.483C572.173 262.63 571.199 262.719 570.883 262.591C570.568 262.463 570.214 262.129 570.108 261.921C570 261.707 569.974 261.472 570.02 261.238C570.047 261.101 570.103 260.972 570.133 260.837C570.159 260.723 570.182 260.616 570.238 260.512C570.342 260.315 570.522 260.173 570.738 260.114C570.513 259.907 570.327 259.659 570.198 259.382C570.064 259.095 569.95 258.745 569.918 258.429C569.892 258.172 569.932 257.907 570.073 257.686C570.22 257.455 570.481 257.304 570.707 257.16C570.362 256.89 570.067 256.562 569.824 256.199C569.351 255.492 569.059 254.602 569.299 253.76Z" fill="#191847"/>
<path fill-rule="evenodd" clip-rule="evenodd" d="M613.528 331.545H569.595C566.22 331.545 563.483 334.279 563.483 337.651V372.758C563.483 376.13 566.22 378.864 569.595 378.864H613.528C616.904 378.864 619.64 376.13 619.64 372.758V337.651C619.64 334.279 616.904 331.545 613.528 331.545ZM607.416 342.23C608.26 342.23 608.944 342.913 608.944 343.756V366.652C608.944 367.495 608.26 368.179 607.416 368.179H575.708C574.864 368.179 574.18 367.495 574.18 366.652V343.756C574.18 342.913 574.864 342.23 575.708 342.23H607.416Z" fill="#C5CFD6"/>
<path fill-rule="evenodd" clip-rule="evenodd" d="M536.165 377.589C541.06 366.768 544.6 357.345 546.02 352.373C548.453 343.86 550.304 336.37 550.772 333.572C551.887 326.902 542.191 326.513 540.909 329.829C538.969 334.846 535.583 351.332 531.514 376.233L536.165 377.589ZM592.941 343.628C588.451 341.855 572.723 336.306 565.138 334.736C562.959 334.285 560.846 333.866 558.86 333.487C552.956 332.361 549.897 343 555.583 343.817C569.744 345.853 589.819 347.955 591.537 348.191C593.944 348.522 595.764 344.742 592.941 343.628Z" fill="#B28B67"/>
<path fill-rule="evenodd" clip-rule="evenodd" d="M555.236 330.559L579.528 318.207V315.518H576.639C553.138 321.5 541.129 325.333 540.612 327.019C540.606 327.037 540.601 327.055 540.597 327.073C540.585 327.088 540.573 327.104 540.562 327.12C535.904 333.518 533.115 364.755 532.2 367.094L541.124 368.424C544.538 355.778 555.461 346.969 555.171 331.823C555.249 331.379 555.269 330.958 555.236 330.559Z" fill="#1F28CF"/>
<path fill-rule="evenodd" clip-rule="evenodd" d="M577.51 337.895C579.732 337.451 581.779 337.054 583.531 336.747C594.844 334.765 598.142 328.716 596.192 315.518H575.348C571.943 316.495 554.248 323.907 545.067 327.85C538.991 330.459 540.906 339.866 544.347 342.314C544.366 342.464 544.428 342.566 544.538 342.612C563.049 350.275 577.692 346.254 582.584 347.539L584.847 340.409L577.51 337.895Z" fill="#2B44FF"/>
<path fill-rule="evenodd" clip-rule="evenodd" d="M591.408 342.494C592.62 342.61 593.481 342.792 593.99 343.039C594.609 343.341 595.462 343.884 596.548 344.668C596.198 345.386 593.049 351.835 587.1 364.015C585.192 363.708 584.435 362.98 584.832 361.832C585.228 360.685 585.548 359.726 585.791 358.958L586.171 348.012C586.179 347.801 586.355 347.636 586.566 347.644C586.57 347.644 586.573 347.644 586.577 347.644L588.262 347.749C589.22 346.975 589.852 346.274 590.158 345.647C590.407 345.138 590.545 344.334 590.571 343.236L590.571 343.236C590.581 342.815 590.932 342.481 591.353 342.491C591.372 342.491 591.39 342.493 591.408 342.494Z" fill="#343332"/>
<path fill-rule="evenodd" clip-rule="evenodd" d="M538.393 375.583C538.82 376.722 539.034 377.575 539.034 378.141C539.034 378.829 538.919 379.833 538.689 381.153C537.89 381.153 530.708 381.153 517.143 381.153C516.583 379.304 516.906 378.306 518.112 378.159C519.319 378.011 520.321 377.878 521.119 377.759L531.133 373.3C531.326 373.214 531.552 373.3 531.638 373.493C531.639 373.496 531.641 373.499 531.642 373.503L532.286 375.062C533.403 375.583 534.31 375.843 535.008 375.843C535.576 375.843 536.359 375.614 537.359 375.157L537.359 375.157C537.742 374.981 538.196 375.149 538.372 375.532C538.379 375.549 538.386 375.566 538.393 375.583Z" fill="#343332"/>
<path fill-rule="evenodd" clip-rule="evenodd" d="M557.354 309.459L546.532 320.005C543.383 321.346 540.803 322.828 538.792 324.449C538.34 324.994 537.847 326.038 539.975 325.571C542.103 325.104 544.363 324.708 544.763 325.399C545.163 326.09 543.984 327.149 544.723 328.054C545.216 328.657 546.873 326.739 549.695 322.299L560.948 315.671L557.354 309.459ZM605.388 310.946L597.405 310.978C602.334 326.873 604.995 335.307 605.388 336.279C606.272 338.467 604.401 341.8 603.601 343.591C606.207 344.756 605.929 340.443 609.216 341.97C612.216 343.364 614.498 345.891 617.964 343.754C618.39 343.492 618.857 342.503 617.729 341.73C614.918 339.805 610.867 336.435 610.32 335.326C609.574 333.814 607.93 325.687 605.388 310.946Z" fill="#B28B67"/>
<path fill-rule="evenodd" clip-rule="evenodd" d="M582.701 277.484L579.397 276.918C573.71 291.11 563.78 304.005 549.609 315.604L560.318 328.6C574.488 312.085 583.222 295.047 582.701 277.484Z" fill="#191847"/>
<path fill-rule="evenodd" clip-rule="evenodd" d="M597.101 318.952H567.685C574.5 302.4 577.908 288.34 577.908 276.77L586.781 275.45C593.755 286.653 595.724 300.446 597.101 318.952Z" fill="#DDE3E9"/>
<path fill-rule="evenodd" clip-rule="evenodd" d="M586.969 275.456C586.968 275.454 586.967 275.452 586.965 275.45H586.386C585.693 275.474 584.638 275.517 583.219 275.579L581.075 281.699C580.848 289.162 579.524 304.2 577.102 326.816H596.384C596.334 328.377 596.251 329.954 596.134 331.545H610.472C608.327 307.376 600.495 288.678 586.976 275.45L586.969 275.456V275.456Z" fill="#2F3676"/>
<path fill-rule="evenodd" clip-rule="evenodd" d="M595.111 306.83C594.562 316.566 593.188 323.278 590.989 326.966H596.379C596.615 319.961 596.193 313.249 595.111 306.83V306.83Z" fill="black" fill-opacity="0.1"/>
<path fill-rule="evenodd" clip-rule="evenodd" d="M592.092 315.136L582.584 310.721V315.136H592.092Z" fill="white" fill-opacity="0.2"/>
<g filter="url(#filter0_f)">
<path d="M370.082 356.69L358.564 352.854L367.645 344.798L370.082 356.69Z" fill="#FFE8A8"/>
</g>
<path d="M365.289 353.214C365.289 353.024 365.39 352.849 365.555 352.753L384.235 341.899C384.59 341.692 385.037 341.949 385.037 342.36V356.866C385.037 357.058 384.933 357.236 384.766 357.33L366.086 367.932C365.731 368.134 365.289 367.877 365.289 367.468V353.214Z" fill="#333333"/>
<path d="M366.624 353.338C366.624 353.148 366.724 352.973 366.888 352.877L382.899 343.504C383.255 343.296 383.702 343.552 383.702 343.965V356.442C383.702 356.633 383.6 356.81 383.433 356.905L367.422 366.06C367.066 366.264 366.624 366.007 366.624 365.597V353.338Z" fill="#FCFCFC"/>
<path fill-rule="evenodd" clip-rule="evenodd" d="M425.645 337.388C427.826 334.826 429.303 331.687 429.056 328.169C428.345 318.032 414.245 320.262 411.502 325.378C408.76 330.494 409.085 343.472 412.63 344.386C414.044 344.751 417.055 343.857 420.12 342.009L418.197 355.629H429.556L425.645 337.388Z" fill="#B28B67"/>
<path fill-rule="evenodd" clip-rule="evenodd" d="M434.008 324.794C434.375 324.431 434.576 323.911 434.749 323.418C434.928 322.906 435.103 322.388 435.222 321.855C435.461 320.79 435.463 319.564 434.704 318.737C434.095 318.074 433.181 317.776 432.337 317.712C431.775 317.668 431.198 317.747 430.66 317.924C430.125 318.1 429.664 318.451 429.146 318.668C429.127 317.52 428.93 316.319 428.348 315.338C427.788 314.395 426.895 313.866 425.878 313.726C424.834 313.582 423.804 313.826 422.869 314.332C422.635 314.459 422.403 314.591 422.182 314.742C421.996 314.867 421.803 315.019 421.585 315.07C421.342 315.127 421.222 314.987 421.064 314.809C420.879 314.601 420.67 314.418 420.449 314.256C419.474 313.538 418.193 313.243 417.063 313.673C416.542 313.871 416.035 314.208 415.682 314.672C415.367 315.085 415.142 315.741 414.707 316.03C414.523 316.152 414.392 315.99 414.225 315.87C413.972 315.69 413.732 315.492 413.476 315.317C413.117 315.071 412.729 314.887 412.313 314.79C411.704 314.649 410.863 314.682 410.689 315.48C410.623 315.78 410.674 316.101 410.695 316.403C410.724 316.818 410.754 317.232 410.79 317.646C410.817 317.961 410.852 318.264 410.911 318.573C410.943 318.738 411.042 319.045 410.971 319.209C410.883 319.415 410.476 319.298 410.302 319.305C409.959 319.32 409.614 319.38 409.297 319.527C409.051 319.64 408.793 319.808 408.689 320.09C408.625 320.263 408.642 320.441 408.672 320.619C408.708 320.833 408.667 320.947 408.64 321.163C408.179 320.936 406.581 320.431 406.38 321.258C406.313 321.533 406.466 321.844 406.582 322.076C406.786 322.483 407.053 322.856 407.326 323.211C407.897 323.951 408.577 324.59 409.31 325.136C408.452 325.518 408.228 326.644 408.971 327.315C409.299 327.611 409.74 327.677 410.153 327.658C410.305 327.651 410.523 327.593 410.642 327.619C410.706 327.633 410.775 327.688 410.864 327.694C411.448 327.734 412.107 327.593 412.678 327.463C413.695 327.232 414.657 326.75 415.444 326.015C415.646 325.827 415.812 325.719 416.084 325.721C416.322 325.724 416.555 325.789 416.793 325.795C417.422 325.811 417.989 325.504 418.573 325.299C418.608 326.088 418.833 326.958 419.156 327.668C419.419 328.247 419.968 328.331 420.509 328.382C422.235 328.545 423.968 328.363 425.698 328.366C424.024 328.744 422.294 328.901 420.635 329.346C419.885 329.547 420.458 330.053 420.779 330.404C421.306 330.981 421.699 331.697 421.971 332.45C422.79 331.382 424.237 330.678 425.52 331.006C426.936 331.369 427.934 333.286 427.028 334.665C426.502 335.465 425.552 335.774 424.762 336.117C425.378 336.759 425.528 337.706 425.899 338.504C426.082 338.898 426.339 339.343 426.748 339.48C426.899 339.531 427.077 339.535 427.196 339.659C427.344 339.812 427.38 339.983 427.569 340.114C428.323 340.639 429.501 340.598 430.169 339.914C430.773 339.294 430.616 338.315 430.111 337.687C430.915 337.352 432.379 336.92 432.06 335.668C433.801 335.552 438.029 332.726 435.692 330.661C436.974 329.935 438.153 328.162 437.329 326.6C436.694 325.396 435.219 324.858 434.008 324.794Z" fill="#191847"/>
<path fill-rule="evenodd" clip-rule="evenodd" d="M450.087 414.837H413.522L408.73 473.572H463.161L450.087 414.837Z" fill="#C5CFD6"/>
<path fill-rule="evenodd" clip-rule="evenodd" d="M450.087 414.837H438.841L432.11 473.572H463.161L450.087 414.837Z" fill="black" fill-opacity="0.1"/>
<path fill-rule="evenodd" clip-rule="evenodd" d="M371.834 404.775C367.935 402.432 361.394 405.442 361.399 408.793C361.412 418.818 370.554 466.065 371.032 469.052C371.509 472.038 376.622 472.827 376.92 469.061C377.394 463.069 378.274 442.326 377.393 432.724C377.03 428.761 376.638 424.987 376.253 421.619C381.05 430.289 388.469 442.701 398.51 458.857L403.961 456.365C399.68 442.251 396.171 432.288 393.431 426.474C388.741 416.519 384.343 407.994 382.492 404.991C379.58 400.267 374.512 401.915 371.834 404.775Z" fill="#B28B67"/>
<path fill-rule="evenodd" clip-rule="evenodd" d="M403.571 448.527L384.862 404.174C380.38 396.959 367.814 405.642 369.342 409.827C372.813 419.327 390.46 450.085 391.494 452.916L403.571 448.527Z" fill="#1F28CF"/>
<path fill-rule="evenodd" clip-rule="evenodd" d="M404.611 453.567C405.776 454.527 406.534 455.311 406.885 455.919C407.312 456.659 407.811 457.809 408.383 459.37C407.526 459.866 399.819 464.319 385.263 472.73C383.516 471.09 383.243 469.817 384.447 468.91C385.65 468.004 386.642 467.239 387.425 466.617L395.406 455.614C395.56 455.403 395.856 455.356 396.067 455.509C396.071 455.512 396.075 455.515 396.078 455.517L397.736 456.795C399.257 456.661 400.392 456.378 401.141 455.946C401.75 455.594 402.449 454.862 403.238 453.75L403.238 453.75C403.54 453.324 404.131 453.223 404.558 453.526C404.576 453.539 404.594 453.553 404.611 453.567Z" fill="#E4E4E4"/>
<path fill-rule="evenodd" clip-rule="evenodd" d="M378.117 466.657C378.647 468.072 378.911 469.131 378.911 469.833C378.911 470.687 378.769 471.933 378.485 473.572C377.495 473.572 368.596 473.572 351.789 473.572C351.095 471.277 351.496 470.038 352.99 469.855C354.485 469.672 355.727 469.507 356.715 469.359L369.123 463.824C369.362 463.717 369.642 463.824 369.748 464.063C369.75 464.067 369.752 464.071 369.754 464.076L370.551 466.012C371.935 466.658 373.059 466.981 373.924 466.981C374.627 466.981 375.598 466.697 376.836 466.129L376.836 466.129C377.311 465.911 377.873 466.119 378.091 466.595C378.101 466.616 378.109 466.636 378.117 466.657Z" fill="#E4E4E4"/>
<path fill-rule="evenodd" clip-rule="evenodd" d="M360.088 412.201C360.088 424.784 366.059 454.138 366.063 456.909L378.911 456.918C377.031 430.727 376.364 417.49 376.911 417.208C377.731 416.785 410.54 420.486 420.38 420.486C434.57 420.486 440.439 411.531 440.916 394.943H412.807C407.084 395.556 377.232 401.582 366.145 403.653C361.399 404.54 360.088 408.734 360.088 412.201Z" fill="#2B44FF"/>
<path fill-rule="evenodd" clip-rule="evenodd" d="M408.428 365.434L392 356.43C389.268 353.183 386.576 350.662 383.924 348.865C383.114 348.527 381.697 348.322 383.022 350.675C384.347 353.029 385.635 355.564 384.96 356.289C384.285 357.014 382.602 356.002 381.796 357.206C381.26 358.009 384.135 359.278 390.424 361.013L402.361 371.951L408.428 365.434ZM382.698 373.032L375.481 369.064C374.469 365.209 373.259 363.269 371.85 363.245C370.768 362.741 372.652 367.613 370.602 367.19C368.551 366.768 363.546 363.042 362.683 363.799C361.407 364.918 362.545 368.354 363.885 370.063C366.391 373.258 368.465 374.35 373.592 375.781C376.273 376.529 379.171 378.028 382.287 380.279L382.698 373.032Z" fill="#997659"/>
<path fill-rule="evenodd" clip-rule="evenodd" d="M416.429 363.428C410.675 363.368 403.001 362.151 394.814 356.95L391.598 364.126C397.246 369.735 405.187 374.344 412.131 374.149C417.602 373.995 420.399 367.371 416.429 363.428Z" fill="#2026A2"/>
<path fill-rule="evenodd" clip-rule="evenodd" d="M408.681 374.936C402.572 376.461 392.328 374.663 377.948 369.542C374.381 376.927 372.732 382.192 373.001 385.336C385.337 391.785 395.91 394.66 404.62 394.85C404.344 400.022 404.973 404.943 407.086 409.441C411.431 418.686 436.871 410.124 445.425 411.809C450.782 394.399 440.424 387.324 440.416 376.185C440.407 363.986 430.619 345.209 429.179 345.209H416.046C415.321 354.525 411.674 364.793 408.681 374.936Z" fill="#1F28CF"/>
<path d="M371.909 352.267C371.878 352.158 371.931 352.043 372.033 351.995L379.507 348.486C379.635 348.425 379.787 348.494 379.826 348.63L381.212 353.45C381.243 353.559 381.191 353.674 381.088 353.722L373.614 357.231C373.486 357.292 373.334 357.223 373.295 357.086L371.909 352.267Z" fill="#292929"/>
<path d="M372.235 352.316C372.204 352.208 372.256 352.092 372.359 352.044L379.283 348.79C379.411 348.73 379.563 348.798 379.602 348.935L380.886 353.401C380.917 353.509 380.865 353.625 380.762 353.673L373.838 356.927C373.71 356.987 373.558 356.919 373.519 356.782L372.235 352.316Z" fill="#58CBFB"/>
<g filter="url(#filter1_d)">
<path d="M375.475 352.751C375.463 352.708 375.484 352.662 375.525 352.642L377.214 351.85C377.265 351.826 377.326 351.853 377.342 351.908L377.646 352.966C377.658 353.009 377.637 353.055 377.596 353.075L375.907 353.867C375.856 353.891 375.795 353.864 375.779 353.809L375.475 352.751Z" fill="#FCFCFC"/>
</g>
<g clip-path="url(#clip0)">
<path fill-rule="evenodd" clip-rule="evenodd" d="M371.866 355.062C371.778 354.964 371.719 354.842 371.726 354.704C371.746 354.308 372.3 354.385 372.41 354.583C372.521 354.781 372.518 355.288 372.38 355.326C372.325 355.342 372.206 355.309 372.085 355.239L372.17 355.77L371.725 355.778L371.866 355.062Z" fill="#D4A181"/>
<path fill-rule="evenodd" clip-rule="evenodd" d="M372.019 355.032C371.966 355.138 371.891 355.219 371.815 355.221C371.67 355.223 371.564 355.032 371.56 354.824C371.56 354.817 371.56 354.81 371.56 354.802C371.409 354.91 371.295 355.119 371.093 355.123C370.817 355.128 370.698 354.574 371.083 354.567C371.344 354.563 371.474 354.598 371.586 354.653C371.606 354.591 371.639 354.538 371.679 354.501C371.689 354.49 371.703 354.479 371.723 354.469C371.734 354.462 371.747 354.457 371.759 354.453C371.826 354.427 371.922 354.408 372.03 354.402C372.051 354.401 372.07 354.4 372.09 354.4C372.088 354.298 372.17 354.214 372.272 354.212C372.374 354.211 372.458 354.292 372.46 354.394C372.462 354.493 372.386 354.575 372.288 354.582C372.233 354.6 372.161 354.614 372.082 354.621C372.09 354.65 372.095 354.683 372.095 354.72C372.096 354.753 372.093 354.788 372.087 354.824C372.069 354.804 372.046 354.791 372.023 354.791C371.957 354.792 371.913 354.847 371.914 354.904C371.915 354.977 371.958 355.029 372.019 355.032Z" fill="#191847"/>
<path fill-rule="evenodd" clip-rule="evenodd" d="M371.651 357.502L372.949 359.561L373.74 361.159L374.048 361.07L372.611 357.226L371.651 357.502Z" fill="#BA8B72"/>
<path fill-rule="evenodd" clip-rule="evenodd" d="M371.359 357.586C371.74 358.74 371.905 359.381 371.925 359.49C371.945 359.599 372.091 360.326 372.055 361.682L372.375 361.59C372.554 360.248 372.532 359.485 372.547 359.312C372.561 359.138 372.555 358.451 372.492 357.26L371.359 357.586Z" fill="#D4A181"/>
<path fill-rule="evenodd" clip-rule="evenodd" d="M371.637 357.506C372.029 358.23 372.677 359.38 373.581 360.954L374.031 360.825C373.565 359.076 373.094 357.972 372.614 357.225L371.637 357.506Z" fill="#69A1AC"/>
<path fill-rule="evenodd" clip-rule="evenodd" d="M371.357 357.587C371.736 358.741 371.951 359.923 371.997 361.429L372.477 361.291C372.662 359.967 372.708 358.715 372.561 357.24L371.357 357.587Z" fill="#89C5CC"/>
<path fill-rule="evenodd" clip-rule="evenodd" d="M372.075 361.926L372.011 361.637C372.123 361.637 372.249 361.588 372.389 361.489C372.591 361.56 372.825 361.58 373.091 361.551C373.111 361.548 373.13 361.563 373.132 361.583C373.132 361.585 373.132 361.586 373.132 361.587L373.133 361.68L372.497 361.863L372.126 361.97L372.075 361.926Z" fill="#191847"/>
<path fill-rule="evenodd" clip-rule="evenodd" d="M373.748 361.446L373.684 361.156C373.796 361.156 373.922 361.107 374.062 361.009C374.264 361.079 374.498 361.099 374.764 361.07C374.785 361.067 374.803 361.082 374.805 361.102C374.805 361.104 374.805 361.105 374.805 361.106L374.806 361.199L374.17 361.382L373.799 361.489L373.748 361.446Z" fill="#191847"/>
<path fill-rule="evenodd" clip-rule="evenodd" d="M372.637 356.136L373.24 355.718C373.333 355.581 373.427 355.472 373.523 355.391C373.553 355.374 373.607 355.36 373.565 355.457C373.523 355.554 373.484 355.658 373.513 355.684C373.542 355.709 373.603 355.663 373.64 355.706C373.664 355.735 373.557 355.796 373.32 355.89L372.9 356.364L372.637 356.136ZM373.67 356.325L373.934 356.141C373.958 355.987 373.997 355.907 374.052 355.9C374.092 355.876 374.038 356.073 374.116 356.048C374.194 356.023 374.374 355.858 374.411 355.884C374.465 355.922 374.435 356.06 374.389 356.132C374.305 356.267 374.229 356.318 374.035 356.395C373.934 356.435 373.827 356.505 373.715 356.605L373.67 356.325Z" fill="#D4A181"/>
<path fill-rule="evenodd" clip-rule="evenodd" d="M372.318 356.091C372.541 356.065 372.835 355.986 373.132 355.75L373.287 356.016C373.09 356.257 372.8 356.469 372.529 356.49C372.316 356.506 372.18 356.26 372.318 356.091Z" fill="#2026A2"/>
<path fill-rule="evenodd" clip-rule="evenodd" d="M372.667 356.506C372.911 356.54 373.302 356.428 373.84 356.17C374.009 356.442 374.095 356.64 374.098 356.764C373.644 357.065 373.245 357.22 372.906 357.264C372.938 357.463 372.934 357.657 372.87 357.841C372.739 358.218 371.714 357.99 371.388 358.091C371.109 357.436 371.482 357.118 371.437 356.685C371.387 356.211 371.691 355.441 371.747 355.435L372.258 355.381C372.324 355.74 372.508 356.124 372.667 356.506Z" fill="#1F28CF"/>
</g>
<path d="M376.726 352.791C376.744 352.795 376.751 352.816 376.739 352.829L376.551 353.036C376.539 353.049 376.517 353.044 376.512 353.027L376.427 352.761C376.421 352.744 376.436 352.728 376.454 352.732L376.726 352.791Z" fill="#C4C4C4"/>
<path fill-rule="evenodd" clip-rule="evenodd" d="M402.788 523.358C405.435 520.835 407.386 517.608 407.52 513.775C407.905 502.733 392.421 503.543 388.877 508.764C385.333 513.985 384.21 528.056 387.935 529.447C389.42 530.002 392.774 529.378 396.295 527.727L392.669 542.237L404.938 543.527L402.788 523.358Z" fill="#B28B67"/>
<path fill-rule="evenodd" clip-rule="evenodd" d="M397.128 513.907C395.969 520.412 394.382 523.559 392.367 523.347C389.344 523.029 386.982 520.837 385.655 520.698C384.689 520.596 384.777 521.831 385.323 522.797C385.774 523.594 388.274 524.58 388.153 525.729C388.032 526.879 386.091 525.776 386.02 526.457C385.901 527.585 385.321 529.668 387.274 529.873C389.251 530.081 394.996 529.955 396.277 527.117C397.103 525.286 397.922 521.397 398.733 515.45C398.855 515.448 398.977 515.453 399.101 515.466C400.795 515.645 402.024 517.165 401.846 518.862C401.755 519.724 401.319 520.465 400.69 520.963C401.295 522.042 401.98 523.174 402.777 524.352C406.418 522.653 409.592 516.895 406.853 510.755C406.226 507.822 404.291 506.087 401.891 505.124C399.975 504.073 397.904 503.76 396.095 504.079C392.622 504.013 389.437 504.741 388.5 505.274C388.157 508.54 388.686 509.575 394.089 510.057C395.341 510.897 396.233 512.212 397.128 513.907Z" fill="#191847"/>
<path fill-rule="evenodd" clip-rule="evenodd" d="M338.717 588.919C335.571 583.545 326.049 585.882 325.62 590.012C324.495 600.855 328.958 653.36 329.132 656.663C329.306 659.967 334.717 661.61 335.466 657.584C336.656 651.178 339.962 628.883 340.106 618.364C340.148 615.291 340.164 612.319 340.159 609.532C344.366 619.418 350.87 633.45 359.669 651.628L365.84 649.552C362.821 633.804 360.163 622.632 357.865 616.033C353.931 604.736 350.149 595.018 348.492 591.56C346.302 586.993 341.958 587.112 338.717 588.919Z" fill="#B28B67"/>
<path fill-rule="evenodd" clip-rule="evenodd" d="M366.31 641.033L351.145 590.946C347.124 582.635 332.564 590.598 333.739 595.297C336.407 605.964 351.972 641.228 352.767 644.407L366.31 641.033Z" fill="#1F28CF"/>
<path fill-rule="evenodd" clip-rule="evenodd" d="M324.715 593.703C323.286 607.298 325.874 639.878 325.563 642.872L340.022 643.9C340.424 615.852 340.833 601.755 341.247 601.608C342.179 601.278 377.101 610.353 387.701 611.875C402.987 614.07 410.327 605.305 412.724 587.458L382.997 584.333C357.259 584.701 340.33 585.058 332.211 585.407C326.998 585.63 325.109 589.958 324.715 593.703Z" fill="#2B44FF"/>
<path fill-rule="evenodd" clip-rule="evenodd" d="M352.447 636.948L349.06 637.426C344.56 638.062 341.422 642.229 342.052 646.734L342.622 650.812C343.252 655.317 347.411 658.454 351.911 657.819L355.298 657.34C359.798 656.705 362.935 652.538 362.305 648.033L361.735 643.954C361.105 639.449 356.947 636.312 352.447 636.948ZM355.452 641.219C356.577 641.06 357.617 641.844 357.775 642.971L358.768 650.075C358.925 651.201 358.141 652.243 357.016 652.402L348.905 653.547C347.78 653.706 346.74 652.922 346.583 651.796L345.59 644.691C345.432 643.565 346.217 642.523 347.342 642.364L355.452 641.219Z" fill="#C5CFD6"/>
<path fill-rule="evenodd" clip-rule="evenodd" d="M337.052 650.011C337.463 651.601 337.629 652.775 337.549 653.535C337.452 654.458 337.157 655.79 336.663 657.53C335.594 657.417 325.982 656.407 307.829 654.498C307.341 651.938 307.914 650.643 309.549 650.615C311.185 650.587 312.544 650.549 313.629 650.502L327.66 645.925C327.93 645.837 328.22 645.985 328.308 646.255C328.31 646.26 328.311 646.264 328.312 646.269L328.954 648.453C330.375 649.309 331.552 649.786 332.487 649.884C333.246 649.964 334.327 649.767 335.729 649.293L335.729 649.293C336.267 649.112 336.85 649.401 337.031 649.94C337.039 649.964 337.046 649.987 337.052 650.011Z" fill="#E4E4E4"/>
<path d="M311.307 654.864L334.824 657.336C335.812 657.44 336.529 658.327 336.424 659.317C336.32 660.307 335.435 661.026 334.447 660.922L310.93 658.449C309.942 658.345 309.225 657.459 309.329 656.468C309.433 655.478 310.319 654.76 311.307 654.864Z" fill="#2F3676"/>
<path fill-rule="evenodd" clip-rule="evenodd" d="M413.948 590.565L359.247 584.813C356.424 584.517 353.894 586.569 353.596 589.398L350.957 614.496L413.838 621.107C414.968 621.226 415.98 620.405 416.099 619.273L418.522 596.224C418.819 593.395 416.772 590.861 413.948 590.565Z" fill="#2F3676"/>
<path fill-rule="evenodd" clip-rule="evenodd" d="M359.247 584.813L358.125 584.696C355.622 584.432 353.295 586.025 352.629 588.457L334.218 655.719L339.681 656.293" fill="#2F3676"/>
<path d="M335.697 666.232C330.615 665.698 326.929 661.137 327.465 656.045C328 650.953 332.554 647.258 337.636 647.793C342.718 648.327 346.404 652.888 345.869 657.98C345.333 663.072 340.78 666.766 335.697 666.232Z" fill="#191847"/>
<path fill-rule="evenodd" clip-rule="evenodd" d="M403.798 672.356C425.256 674.612 444.484 659.013 446.744 637.513C449.005 616.014 433.442 596.757 411.984 594.501C390.526 592.245 371.298 607.844 369.038 629.344C366.777 650.843 382.34 670.1 403.798 672.356ZM404.552 665.185C387.047 663.345 374.351 647.635 376.195 630.096C378.039 612.557 393.725 599.831 411.23 601.672C428.735 603.512 441.431 619.222 439.587 636.761C437.743 654.3 422.057 667.026 404.552 665.185Z" fill="#191847"/>
<path d="M409.4 599.408L413.49 599.838L406.382 667.449L402.292 667.019L409.4 599.408Z" fill="#191847"/>
<path d="M385.747 607.664L387.345 606.368C387.786 606.01 388.434 606.078 388.791 606.52L430.188 657.744C430.545 658.186 430.477 658.835 430.035 659.193L428.437 660.489C427.996 660.848 427.348 660.779 426.991 660.337L385.594 609.113C385.237 608.671 385.305 608.022 385.747 607.664Z" fill="#191847"/>
<path d="M374.042 630.905L374.258 628.857C374.317 628.291 374.823 627.88 375.388 627.94L440.825 634.82C441.39 634.879 441.799 635.386 441.74 635.952L441.524 638C441.465 638.566 440.959 638.977 440.394 638.917L374.957 632.037C374.392 631.978 373.983 631.471 374.042 630.905Z" fill="#191847"/>
<path d="M382.166 655.625L380.873 654.024C380.515 653.582 380.583 652.933 381.025 652.575L432.17 611.08C432.611 610.722 433.259 610.79 433.616 611.232L434.91 612.833C435.267 613.275 435.199 613.924 434.757 614.282L383.612 655.777C383.171 656.135 382.523 656.067 382.166 655.625Z" fill="#191847"/>
<path fill-rule="evenodd" clip-rule="evenodd" d="M361.904 575.363L344.336 585.646C339.787 586.377 335.935 587.476 332.781 588.944C332.013 589.51 331.029 590.717 333.96 590.798C336.89 590.88 339.969 591.098 340.266 592.134C340.563 593.169 338.679 594.172 339.348 595.598C339.795 596.549 342.584 594.576 347.717 589.681L364.571 584.67L361.904 575.363ZM424.472 582.36L413.785 581.279C418.138 603.307 420.509 615.002 420.897 616.363C421.772 619.424 418.798 623.635 417.475 625.926C420.797 627.856 421.034 622.028 425.217 624.54C429.035 626.834 431.732 630.545 436.672 628.166C437.279 627.873 438.043 626.611 436.643 625.415C433.153 622.436 428.208 617.343 427.632 615.778C426.847 613.642 425.793 602.503 424.472 582.36Z" fill="#B28B67"/>
<path fill-rule="evenodd" clip-rule="evenodd" d="M398.834 534.254L394.494 533.029C376.599 545.501 366.995 572.064 345.371 584.398L349.579 590.916C384.911 590.257 397.054 557.9 398.834 534.254Z" fill="#E87613"/>
<path fill-rule="evenodd" clip-rule="evenodd" d="M412.253 591.94C394.528 590.076 381.49 588.706 373.138 587.827C371.351 587.64 371.96 585.089 372.355 583.812C376.92 569.066 390.267 554.057 392.521 532.621L403.99 532.034C411.741 548.053 413.022 566.907 412.253 591.94Z" fill="#DDE3E9"/>
<path fill-rule="evenodd" clip-rule="evenodd" d="M416.524 548.297C418.212 547.997 419.625 547.033 420.764 545.404C425.671 538.382 424.614 534.121 420.349 532.308C416.083 530.496 411.861 532.862 404.84 532.124C404.458 532.083 404.105 532.071 403.783 532.085L400.229 531.916C386.478 565.261 381.269 587.925 384.604 599.908L415.39 603.145C416.766 607.598 418.135 611.367 419.496 614.452L427.884 615.334C431.363 589.841 427.576 567.495 416.524 548.297Z" fill="#FF9B21"/>
<path fill-rule="evenodd" clip-rule="evenodd" d="M410.544 584.768C408.723 592.783 406.529 598.508 403.965 601.944L415.39 603.145C413.785 597.95 412.17 591.825 410.544 584.768Z" fill="black" fill-opacity="0.1"/>
<path d="M273.505 132.849C265.745 170.377 240.593 191.336 188.328 213.501C136.062 235.666 57.0115 229.416 31.3142 204.143C5.61689 178.87 28.9824 163.357 85.5526 112.404C142.123 61.4509 169.171 55.3876 219.369 63.3919C269.567 71.3963 281.265 95.3221 273.505 132.849Z" fill="#51E678" fill-opacity="0.9"/>
<path d="M136.073 143.555C136.073 140.934 137.977 138.7 140.565 138.285L329.497 107.975C332.741 107.455 335.68 109.96 335.68 113.245V229.457C335.68 232.078 333.776 234.311 331.188 234.726L142.256 265.036C139.012 265.557 136.073 263.052 136.073 259.767V143.555Z" fill="#292929"/>
<path d="M143.011 146.741C143.011 144.12 144.914 141.888 147.501 141.471L322.557 113.315C325.801 112.793 328.742 115.299 328.742 118.584V226.271C328.742 228.891 326.839 231.124 324.252 231.54L149.196 259.696C145.952 260.218 143.011 257.713 143.011 254.427V146.741Z" fill="#58CBFB"/>
<g filter="url(#filter2_d)">
<path d="M212.393 177.168C212.393 176.119 213.155 175.226 214.191 175.06L256.887 168.222C258.184 168.014 259.36 169.016 259.36 170.33V195.843C259.36 196.892 258.598 197.785 257.562 197.951L214.866 204.79C213.569 204.997 212.393 203.995 212.393 202.682V177.168Z" fill="#FCFCFC"/>
</g>
<path fill-rule="evenodd" clip-rule="evenodd" d="M117.204 205.533C115.895 202.779 115.338 199.686 116.38 196.666C119.38 187.963 131.205 193.221 132.406 198.341C133.608 203.461 130.279 214.739 126.96 214.708C125.637 214.695 123.209 213.208 120.958 210.871L119.448 223.24L109.5 220.576L117.204 205.533Z" fill="#D4A181"/>
<path fill-rule="evenodd" clip-rule="evenodd" d="M120.813 205.831C118.945 207.868 116.76 209.194 115.056 208.737C111.818 207.87 110.676 202.926 111.924 198.272C111.967 198.109 112.014 197.947 112.064 197.788C108.009 199.22 104.128 203.145 99.5957 201.931C93.4302 200.28 94.3146 187.19 102.929 189.498C108.787 191.067 111.44 192.692 113.585 194.62C114.444 193.371 115.503 192.41 116.633 191.844C116.919 191.656 117.319 191.509 117.813 191.407C118.117 191.332 118.424 191.288 118.73 191.274C120.376 191.125 122.649 191.318 125.095 191.882C125.552 191.988 125.997 192.102 126.429 192.224C127.048 189.943 129.397 188.591 131.682 189.203C133.971 189.816 135.33 192.169 134.716 194.458C134.123 196.671 131.902 198.015 129.686 197.546C128.333 197.597 126.651 197.45 124.838 197.092C124.837 197.789 124.733 198.553 124.509 199.387C124.312 200.124 124.021 200.884 123.658 201.637C123.395 201.075 122.959 200.637 122.435 200.497C120.968 200.104 119.624 201.037 119.281 202.317C118.845 203.943 119.468 205.37 120.813 205.831Z" fill="#191847"/>
<path fill-rule="evenodd" clip-rule="evenodd" d="M96.8101 258.502L112.531 312.66L119.925 353.322H127.347L119.938 258.502H96.8101Z" fill="#BA8B72"/>
<path fill-rule="evenodd" clip-rule="evenodd" d="M89.7449 258.502C90.8419 286.637 90.4093 301.982 90.1638 304.538C89.9183 307.094 88.5245 324.214 79.0269 354.18H86.746C99.3241 325.432 103.715 308.313 105.158 304.538C106.6 300.763 110.861 285.418 117.081 258.502H89.7449Z" fill="#D4A181"/>
<path fill-rule="evenodd" clip-rule="evenodd" d="M96.4726 258.502C100.562 277.138 107.634 306.885 117.69 347.744H128.545C129.347 305.806 125.937 278.204 120.03 258.502H96.4726Z" fill="#69A1AC"/>
<path fill-rule="evenodd" clip-rule="evenodd" d="M89.6901 258.502C90.7644 286.637 87.9803 314.354 79.356 348.182H90.9376C103.539 319.864 112.57 292.283 118.743 258.502H89.6901Z" fill="#89C5CC"/>
<path fill-rule="evenodd" clip-rule="evenodd" d="M77.9266 359.757L78.3526 352.893C80.8462 353.622 83.9696 353.336 87.7227 352.035C91.7582 354.892 96.8384 356.844 102.963 357.889C103.43 357.968 103.745 358.412 103.665 358.879C103.66 358.909 103.653 358.939 103.645 358.969L103.056 361.045H87.7227H78.7785L77.9266 359.757Z" fill="#191847"/>
<path fill-rule="evenodd" clip-rule="evenodd" d="M118.269 359.757L118.694 352.893C121.188 353.622 124.312 353.336 128.065 352.035C132.1 354.892 137.18 356.844 143.305 357.889C143.772 357.968 144.087 358.412 144.007 358.879C144.002 358.909 143.995 358.939 143.987 358.969L143.398 361.045H128.065H119.12L118.269 359.757Z" fill="#191847"/>
<path fill-rule="evenodd" clip-rule="evenodd" d="M127.518 234.384L143.605 228.936C146.556 226.47 149.356 224.644 152.006 223.459C152.783 223.285 154.08 223.325 152.527 225.216C150.973 227.107 149.424 229.166 149.913 229.919C150.402 230.672 152.064 230.033 152.594 231.235C152.947 232.036 150.179 232.715 144.291 233.273L131.91 241.152L127.518 234.384ZM149.298 245.211L156.366 242.807C157.877 239.527 159.263 237.987 160.525 238.187C161.57 237.908 159.121 241.958 161.018 241.903C162.916 241.849 167.972 239.313 168.623 240.124C169.586 241.323 168.029 244.209 166.564 245.523C163.824 247.979 161.8 248.627 156.996 249.096C154.485 249.342 151.661 250.223 148.525 251.741L149.298 245.211Z" fill="#D4A181"/>
<path fill-rule="evenodd" clip-rule="evenodd" d="M120.689 231.334C125.837 232.186 132.881 232.308 141.01 228.957L142.752 235.865C136.826 239.98 129.01 242.841 122.841 241.575C117.979 240.576 116.524 234.227 120.689 231.334Z" fill="#2026A2"/>
<path fill-rule="evenodd" clip-rule="evenodd" d="M125.797 242.819C131.012 245.141 140.443 245.149 154.089 242.844C156.111 249.993 156.755 254.949 156.02 257.712C143.99 261.523 134.097 262.424 126.289 261.223C125.723 265.88 124.386 270.172 121.792 273.851C116.457 281.414 95.0882 269.773 87.1851 269.93C85.1417 253.556 95.5034 248.875 97.2639 238.939C99.1918 228.058 110.887 212.847 112.173 213.074L123.899 215.141C123.08 223.566 124.721 233.3 125.797 242.819Z" fill="#1F28CF"/>
<path d="M240.004 186.065C240.366 186.26 240.381 186.773 240.032 186.989L234.526 190.39C234.177 190.605 233.724 190.362 233.712 189.951L233.52 183.483C233.508 183.073 233.945 182.803 234.307 182.998L240.004 186.065Z" fill="#C4C4C4"/>
<line x1="531.145" y1="463.733" x2="522.884" y2="562.919" stroke="#2C2C2C" stroke-width="4.78509" stroke-linecap="round"/>
<path d="M527.189 418.988L542.191 423.358L538.974 461.984L523.714 460.713L527.189 418.988Z" fill="#343332"/>
<path d="M528.481 415.014L537.148 416.481L542.191 423.358L527.885 422.167L528.481 415.014Z" fill="#292929"/>
<rect x="525.145" y="460.832" width="12.4412" height="3.34956" transform="rotate(4.76114 525.145 460.832)" fill="#292929"/>
<path d="M515.208 418.71L527.905 421.928L524.906 457.931L512.567 450.421L515.208 418.71Z" fill="#2C2C2C"/>
<path d="M520.891 409.026L521.448 410.993L515.507 418.901L514.176 414.708L520.891 409.026Z" fill="#5A5A5A"/>
<path d="M529.848 409.85L529.285 411.675L531.479 420.096L532.759 416.226L529.848 409.85Z" fill="#5A5A5A"/>
<path d="M514.115 414.538L515.447 418.73L514.93 424.929L513.261 424.79L514.115 414.538Z" fill="#292929"/>
<path d="M520.811 409.093L523.314 407.861L527.844 408.239L527.566 411.577L521.367 411.06L520.811 409.093Z" fill="#292929"/>
<path d="M529.864 409.887L528.874 408.353L526.194 408.101L525.898 411.438L529.359 411.762L529.864 409.887Z" fill="#292929"/>
<rect x="507.181" y="422.843" width="7.65614" height="27.7535" rx="0.478509" transform="rotate(4.76114 507.181 422.843)" fill="#343332"/>
<rect x="501.817" y="423.837" width="5.26359" height="24.8824" rx="0.478509" transform="rotate(4.76114 501.817 423.837)" fill="#292929"/>
<rect x="498.28" y="425.943" width="3.34956" height="20.0974" rx="0.478509" transform="rotate(4.76114 498.28 425.943)" fill="#1A1A1A"/>
<path d="M515.427 418.969L521.387 410.822L529.255 411.477L531.421 420.061L527.885 422.167L515.427 418.969Z" fill="#333333"/>
<g filter="url(#filter3_f)">
<path d="M481.67 423.6L498.082 428.328L496.791 443.826L479.823 445.773L481.67 423.6Z" fill="#F2B50A" fill-opacity="0.7"/>
</g>
<path d="M501.147 564.47L524.393 541.917L541.919 567.866" stroke="#2C2C2C" stroke-width="4.78509" stroke-linecap="round"/>
<line x1="530.941" y1="463.231" x2="543.022" y2="473.841" stroke="#2C2C2C" stroke-width="2.39254"/>
<line x1="538.138" y1="469.677" x2="547.343" y2="477.76" stroke="#2C2C2C" stroke-width="3.82807" stroke-linecap="round"/>
<path fill-rule="evenodd" clip-rule="evenodd" d="M611.789 427.123C614.147 425.294 615.997 422.835 616.419 419.736C617.634 410.807 604.98 410.192 601.673 414.138C598.365 418.083 596.302 429.409 599.217 430.844C600.379 431.416 603.157 431.186 606.154 430.135L602.021 441.612L611.89 443.667L611.789 427.123Z" fill="#915B3C"/>
<path fill-rule="evenodd" clip-rule="evenodd" d="M608.364 410.19C609.709 410.247 613.242 410.83 613.888 410.964C614.3 411.05 614.728 411.238 615.051 410.91C615.316 410.641 615.352 410.101 615.487 409.753C615.643 409.349 615.828 408.957 616.013 408.566C616.541 407.452 617.202 406.426 618.02 405.504C619.555 403.774 621.525 402.579 623.794 402.117C626.3 401.608 628.949 401.923 631.381 402.639C633.984 403.404 636.198 404.777 638.526 406.12C640.745 407.399 643.175 408.227 645.746 408.363C648.336 408.5 650.516 407.535 652.902 406.684C655.344 405.814 658.001 405.465 660.522 406.197C662.875 406.881 664.873 408.327 666.576 410.058C668.169 411.677 669.387 413.48 669.814 415.75C670.273 418.191 669.758 420.658 667.82 422.328C665.01 424.747 660.752 424.638 657.354 423.853C655.388 423.399 653.524 422.635 651.796 421.591C649.492 420.199 647.653 418.27 645.577 416.583C644.603 415.792 643.571 415.093 642.458 414.513C641.378 413.95 640.279 413.566 639.096 414.043C637.844 414.548 636.709 415.063 635.356 415.26C634.058 415.45 632.729 415.43 631.446 415.152C628.949 414.612 626.646 413.32 624.326 412.293C622.435 411.455 620.404 410.59 618.3 410.578C617.422 410.574 616.118 410.67 615.631 411.482C620.559 413.476 621.252 420.229 618.84 424.578C617.538 426.926 612.243 428.884 610.697 427.186C609.717 426.11 610.646 425.158 611.25 424.528C612.407 423.322 613.075 421.602 611.67 420.301C610.457 419.18 608.589 420.855 608.561 420.847C608.187 420.737 605.283 418.191 603.582 415.003C601.317 414.67 601.285 413.124 602.07 412.029C602.855 410.934 606.505 410.111 608.364 410.19Z" fill="#191847"/>
<path fill-rule="evenodd" clip-rule="evenodd" d="M605.625 477.607L585.891 529.167L575.375 568.238L568.136 567.635L583.067 475.728L605.625 477.607Z" fill="#784931"/>
<path fill-rule="evenodd" clip-rule="evenodd" d="M612.516 478.181C609.16 505.54 608.335 520.547 608.367 523.061C608.399 525.574 608.367 542.39 615.196 572.398L607.667 571.77C597.735 542.702 594.843 525.643 593.743 521.843C592.643 518.043 589.734 502.725 585.854 475.96L612.516 478.181Z" fill="#915B3C"/>
<path fill-rule="evenodd" clip-rule="evenodd" d="M605.955 477.634C600.452 495.483 591.136 523.931 578.008 562.978L567.42 562.096C570.046 521.115 575.616 494.462 582.978 475.72L605.955 477.634Z" fill="#69A1AC"/>
<path fill-rule="evenodd" clip-rule="evenodd" d="M612.57 478.185C609.236 505.547 609.699 532.815 615.362 566.519L604.066 565.578C594.076 536.926 587.508 509.284 584.233 475.825L612.57 478.185Z" fill="#C5CFD6"/>
<path fill-rule="evenodd" clip-rule="evenodd" d="M615.816 577.929L615.958 571.197C613.466 571.705 610.443 571.173 606.888 569.598C602.72 572.058 597.607 573.55 591.548 574.071C591.086 574.111 590.743 574.518 590.783 574.981C590.786 575.01 590.79 575.04 590.795 575.07L591.201 577.143L606.156 578.389L614.88 579.115L615.816 577.929Z" fill="#191847"/>
<path fill-rule="evenodd" clip-rule="evenodd" d="M576.468 574.651L576.61 567.919C574.119 568.428 571.096 567.895 567.541 566.321C563.373 568.781 558.259 570.272 552.2 570.794C551.738 570.834 551.395 571.241 551.435 571.703C551.438 571.733 551.442 571.763 551.448 571.792L551.853 573.866L566.809 575.111L575.532 575.838L576.468 574.651Z" fill="#191847"/>
<path fill-rule="evenodd" clip-rule="evenodd" d="M571.849 465.225L556.386 471.325C552.622 471.348 549.375 471.754 546.646 472.544C545.955 472.904 545.011 473.755 547.368 474.186C549.724 474.617 552.184 475.176 552.295 476.048C552.406 476.92 550.76 477.494 551.124 478.726C551.367 479.548 553.864 478.306 558.616 474.999L572.848 473.06L571.849 465.225ZM621.509 478.661L613.012 476.458C613.795 494.757 614.259 504.48 614.404 505.625C614.73 508.202 611.807 511.225 610.454 512.908C612.897 514.877 613.812 510.209 616.878 512.755C619.676 515.08 621.394 518.408 625.679 517.105C626.205 516.945 626.979 516.023 625.996 514.884C623.548 512.048 620.186 507.326 619.915 505.992C619.546 504.173 620.077 495.063 621.509 478.661Z" fill="#915B3C"/>
<path fill-rule="evenodd" clip-rule="evenodd" d="M606.772 436.688L603.418 435.16C587.42 442.984 576.369 463.2 557.377 470.448L559.966 476.227C588.581 480.097 602.4 455.527 606.772 436.688Z" fill="#1F28CF"/>
<path fill-rule="evenodd" clip-rule="evenodd" d="M610.452 484.861C596.37 481.15 586.01 478.421 579.375 476.672C577.955 476.298 578.763 474.318 579.241 473.337C584.757 462.02 597.397 451.584 601.876 434.585L611.21 435.541C615.483 449.42 614.178 464.777 610.452 484.861Z" fill="#DDE3E9"/>
<path fill-rule="evenodd" clip-rule="evenodd" d="M619.315 450.212C620.715 450.181 621.976 449.58 623.098 448.408C627.932 443.36 627.606 439.793 624.387 437.8C621.167 435.808 617.464 437.189 611.885 435.719C611.582 435.639 611.299 435.585 611.037 435.557L608.188 434.977C592.947 460.143 585.929 477.764 587.136 487.839L611.596 494.284C612.155 498.045 612.792 501.254 613.509 503.91L620.174 505.666C626.145 485.55 625.859 467.065 619.315 450.212Z" fill="#2B44FF"/>
<path fill-rule="evenodd" clip-rule="evenodd" d="M609.962 478.866C607.497 485.1 605.016 489.442 602.519 491.892L611.596 494.284C610.944 489.897 610.399 484.757 609.962 478.866L609.962 478.866Z" fill="black" fill-opacity="0.1"/>
<defs>
<filter id="filter0_f" x="355.895" y="342.129" width="16.8547" height="17.23" filterUnits="userSpaceOnUse" color-interpolation-filters="sRGB">
<feFlood flood-opacity="0" result="BackgroundImageFix"/>
<feBlend mode="normal" in="SourceGraphic" in2="BackgroundImageFix" result="shape"/>
<feGaussianBlur stdDeviation="1.33427" result="effect1_foregroundBlur"/>
</filter>
<filter id="filter1_d" x="375.38" y="351.841" width="2.36186" height="2.21923" filterUnits="userSpaceOnUse" color-interpolation-filters="sRGB">
<feFlood flood-opacity="0" result="BackgroundImageFix"/>
<feColorMatrix in="SourceAlpha" type="matrix" values="0 0 0 0 0 0 0 0 0 0 0 0 0 0 0 0 0 0 127 0"/>
<feOffset dy="0.0921213"/>
<feGaussianBlur stdDeviation="0.0460607"/>
<feColorMatrix type="matrix" values="0 0 0 0 0.203922 0 0 0 0 0.2 0 0 0 0 0.196078 0 0 0 0.3 0"/>
<feBlend mode="normal" in2="BackgroundImageFix" result="effect1_dropShadow"/>
<feBlend mode="normal" in="SourceGraphic" in2="effect1_dropShadow" result="shape"/>
</filter>
<filter id="filter2_d" x="210.258" y="168.195" width="51.236" height="40.892" filterUnits="userSpaceOnUse" color-interpolation-filters="sRGB">
<feFlood flood-opacity="0" result="BackgroundImageFix"/>
<feColorMatrix in="SourceAlpha" type="matrix" values="0 0 0 0 0 0 0 0 0 0 0 0 0 0 0 0 0 0 127 0"/>
<feOffset dy="2.13483"/>
<feGaussianBlur stdDeviation="1.06742"/>
<feColorMatrix type="matrix" values="0 0 0 0 0.203922 0 0 0 0 0.2 0 0 0 0 0.196078 0 0 0 0.3 0"/>
<feBlend mode="normal" in2="BackgroundImageFix" result="effect1_dropShadow"/>
<feBlend mode="normal" in="SourceGraphic" in2="effect1_dropShadow" result="shape"/>
</filter>
<filter id="filter3_f" x="472.645" y="416.422" width="32.6141" height="36.5291" filterUnits="userSpaceOnUse" color-interpolation-filters="sRGB">
<feFlood flood-opacity="0" result="BackgroundImageFix"/>
<feBlend mode="normal" in="SourceGraphic" in2="BackgroundImageFix" result="shape"/>
<feGaussianBlur stdDeviation="3.58881" result="effect1_foregroundBlur"/>
</filter>
<clipPath id="clip0">
<rect width="6.74788" height="8.52122" fill="white" transform="translate(367.876 354.492) rotate(-16.0361)"/>
</clipPath>
</defs>
</svg>
