<svg width="45" height="45" viewBox="0 0 45 45" fill="none" xmlns="http://www.w3.org/2000/svg">
<g clip-path="url(#clip0)">
<g filter="url(#filter0_d)">
<path d="M22.5 44.9994C19.4915 45.0053 16.5127 44.404 13.7421 43.2315C11.0685 42.1021 8.63953 40.4646 6.58983 38.4097C4.53467 36.3602 2.89689 33.9312 1.76734 31.2576C0.595166 28.4869 -0.00594535 25.5082 4.43251e-05 22.4997C-0.00572965 19.4913 0.595598 16.5125 1.76801 13.7419C2.89755 11.0683 4.53534 8.63928 6.5905 6.58973C8.64013 4.53484 11.0691 2.89729 13.7427 1.76796C16.5132 0.595551 19.4917 -0.00575131 22.5 4.30708e-05C25.5085 -0.00586179 28.4873 0.595443 31.2579 1.76796C33.9315 2.89729 36.3605 4.53484 38.4102 6.58973C40.4654 8.63926 42.1031 11.0682 43.2327 13.7419C44.4048 16.5126 45.0059 19.4913 45 22.4997C45.0057 25.5082 44.4044 28.4869 43.232 31.2576C42.1024 33.9312 40.4647 36.3602 38.4095 38.4097C36.3598 40.4646 33.9308 42.1021 31.2572 43.2315C28.4868 44.4039 25.5083 45.0052 22.5 44.9994ZM22.5 2.04547C17.077 2.0516 11.8778 4.20856 8.04319 8.04315C4.20855 11.8777 2.05163 17.0768 2.04549 22.4997C2.05163 27.9227 4.20855 33.1217 8.04319 36.9563C11.8778 40.7909 17.077 42.9479 22.5 42.954C27.923 42.9479 33.1222 40.7909 36.9568 36.9563C40.7914 33.1217 42.9484 27.9227 42.9545 22.4997C42.9484 17.0768 40.7914 11.8777 36.9568 8.04315C33.1222 4.20856 27.923 2.0516 22.5 2.04547Z" fill="black"/>
</g>
<path d="M30.7509 12.7384L12.616 32.1855C12.2307 32.5986 12.2533 33.2457 12.6664 33.6309C13.0795 34.0161 13.7267 33.9935 14.1119 33.5805L32.2468 14.1334C32.632 13.7203 32.6094 13.0731 32.1963 12.6879C31.7833 12.3027 31.1361 12.3253 30.7509 12.7384Z" fill="black"/>
<path d="M19.2451 19.1214L12.9776 12.8539C12.5782 12.4545 11.9306 12.4545 11.5312 12.8539C11.1318 13.2533 11.1318 13.9009 11.5312 14.3003L17.7987 20.5677C18.1981 20.9671 18.8457 20.9671 19.2451 20.5677C19.6445 20.1683 19.6445 19.5208 19.2451 19.1214Z" fill="black"/>
<path d="M32.1997 32.0758L25.9322 25.8083C25.5328 25.4089 24.8852 25.4089 24.4858 25.8083C24.0864 26.2077 24.0864 26.8553 24.4858 27.2546L30.7533 33.5221C31.1527 33.9215 31.8003 33.9215 32.1997 33.5221C32.5991 33.1227 32.5991 32.4752 32.1997 32.0758Z" fill="black"/>
</g>
<defs>
<filter id="filter0_d" x="-6" y="-3" width="57" height="56.9995" filterUnits="userSpaceOnUse" color-interpolation-filters="sRGB">
<feFlood flood-opacity="0" result="BackgroundImageFix"/>
<feColorMatrix in="SourceAlpha" type="matrix" values="0 0 0 0 0 0 0 0 0 0 0 0 0 0 0 0 0 0 127 0"/>
<feOffset dy="3"/>
<feGaussianBlur stdDeviation="3"/>
<feColorMatrix type="matrix" values="0 0 0 0 0 0 0 0 0 0 0 0 0 0 0 0 0 0 0.161 0"/>
<feBlend mode="normal" in2="BackgroundImageFix" result="effect1_dropShadow"/>
<feBlend mode="normal" in="SourceGraphic" in2="effect1_dropShadow" result="shape"/>
</filter>
<clipPath id="clip0">
<rect width="45" height="45" fill="white"/>
</clipPath>
</defs>
</svg>
