<svg width="45" height="45" viewBox="0 0 45 45" fill="none" xmlns="http://www.w3.org/2000/svg">
<g clip-path="url(#clip0)">
<path d="M22.5007 45.0019C16.9405 44.9949 11.5808 42.9228 7.46169 39.1874C3.34263 35.452 0.75804 30.3195 0.208492 24.7858C-0.341055 19.2521 1.18432 13.7116 4.48824 9.23886C7.79216 4.76612 12.6389 1.68048 18.0892 0.579779C23.5394 -0.520926 29.204 0.441848 33.9844 3.28191C38.7648 6.12198 42.3202 10.6362 43.9607 15.9496C45.6013 21.263 45.2105 26.996 42.8635 32.0372C40.5165 37.0785 36.3805 41.069 31.2586 43.2333C28.4881 44.4066 25.5094 45.008 22.5007 45.0019ZM22.5007 2.04471C18.4555 2.04471 14.5004 3.24492 11.1369 5.49263C7.77337 7.74034 5.15212 10.9346 3.60406 14.6724C2.056 18.4102 1.65105 22.5237 2.44025 26.4918C3.22944 30.4598 5.17783 34.1039 8.03827 36.9647C10.8987 39.8255 14.5424 41.7741 18.5099 42.5634C22.4775 43.3527 26.5905 42.9477 30.3279 41.3995C34.0652 39.8512 37.2591 37.2296 39.5065 33.8657C41.754 30.5018 42.954 26.5463 42.954 22.5005C42.9481 17.0771 40.791 11.8779 36.9565 8.04294C33.1221 4.20803 27.9235 2.05067 22.5007 2.04471Z" fill="#292929"/>
<path d="M31.7398 12.4959H13.2473C12.5571 12.4959 11.9976 13.0552 11.9976 13.7452C11.9976 14.4352 12.5571 14.9946 13.2473 14.9946H31.7398C32.43 14.9946 32.9895 14.4352 32.9895 13.7452C32.9895 13.0552 32.43 12.4959 31.7398 12.4959Z" fill="#292929"/>
<path d="M31.7398 30.4908H13.2473C12.5571 30.4908 11.9976 31.0502 11.9976 31.7402C11.9976 32.4302 12.5571 32.9895 13.2473 32.9895H31.7398C32.43 32.9895 32.9895 32.4302 32.9895 31.7402C32.9895 31.0502 32.43 30.4908 31.7398 30.4908Z" fill="#292929"/>
<path d="M27.7411 21.4937H17.2458C16.5556 21.4937 15.9961 22.0531 15.9961 22.7431C15.9961 23.4331 16.5556 23.9924 17.2458 23.9924H27.7411C28.4313 23.9924 28.9908 23.4331 28.9908 22.7431C28.9908 22.0531 28.4313 21.4937 27.7411 21.4937Z" fill="#292929"/>
</g>
<defs>
<clipPath id="clip0">
<rect width="45" height="45" fill="white"/>
</clipPath>
</defs>
</svg>
