<svg width="188" height="43" viewBox="0 0 188 43" fill="none" xmlns="http://www.w3.org/2000/svg">
<path d="M22.217 22.2218C22.1385 22.3679 22.0232 22.4911 21.8825 22.5789C21.7418 22.6668 21.5806 22.7165 21.4148 22.7229C20.855 22.7314 19.9441 22.0212 19.7856 21.8959C19.6271 21.7706 18.2569 20.3336 17.2038 19.899C16.6371 19.6572 16.0226 19.5481 15.4072 19.5799C14.7919 19.6117 14.1919 19.7837 13.6531 20.0827C13.6531 20.0827 11.1996 21.3136 9.75145 25.6583C8.30332 30.003 8.28112 33.523 9.8405 34.7927C11.3999 36.0624 13.2271 35.0824 14.4524 34.5699C15.6778 34.0574 17.7275 32.8321 18.4181 32.7652C19.1087 32.6983 19.5543 32.8765 19.3093 34.0796C19.0643 35.2827 17.2818 39.9475 16.8362 40.6156C15.7641 41.4201 14.5596 42.0309 13.277 42.4203C11.4562 42.9514 9.5309 43.0146 7.67923 42.604C6.00795 42.2529 4.11454 41.1278 2.3989 39.2787C0.683263 37.4296 -0.341443 33.6349 0.104186 29.133C0.549816 24.631 3.20109 19.6195 6.23111 16.5673C9.26113 13.5151 11.9793 12.4894 14.6531 12.3785C17.3268 12.2676 20.6964 13.732 22.6515 16.3386C22.736 16.4664 22.7981 16.6076 22.8352 16.7562C22.8352 16.7562 23.0189 21.1916 22.217 22.2218Z" fill="#292929"/>
<path d="M35.8352 13.2085L28.3319 42.8488H23.6701C23.6701 42.8488 21.5144 42.9323 20.9297 42.1637C20.3451 41.3951 20.462 40.6934 20.813 39.0221C21.164 37.3508 26.11 17.6701 26.11 17.6701C26.11 17.6701 26.7951 14.9297 27.4475 14.2277C28.1 13.5256 28.9178 13.2085 30.4051 13.2085H35.8352Z" fill="#292929"/>
<path d="M34.4821 0.00241119C34.4821 0.00241119 36.8717 -0.0977412 38.1081 1.22218C38.5619 1.69608 38.8394 2.31134 38.8941 2.96519C38.9489 3.61903 38.7776 4.27186 38.4089 4.81462C37.9245 5.54994 36.6378 7.58757 32.6608 7.58757C28.6837 7.58757 28.6338 5.01427 28.6338 4.57974C28.68 3.6287 29.0793 2.72908 29.7534 2.05668C30.3429 1.38862 31.072 0.858314 31.8892 0.50332C32.7063 0.148325 33.5915 -0.0226808 34.4821 0.00241119Z" fill="#292929"/>
<path d="M41.5169 13.2085H37.7238L36.1197 19.6754H39.9128L33.981 42.8517H39.9966C39.9966 42.8517 42.5699 42.9496 43.4723 39.5405C44.3746 36.1314 48.4851 19.692 48.4851 19.692H51.8939C51.8939 19.692 52.8798 19.692 53.2474 19.4248C53.6151 19.1576 53.9827 19.0572 54.2669 17.9375C54.551 16.8179 55.119 14.6289 55.119 14.6289C55.119 14.6289 55.303 13.9941 54.9187 13.6431C54.5641 13.3453 54.1113 13.1904 53.6487 13.2085H50.2885L53.0288 2.69806C53.0288 2.69806 53.3296 1.74579 52.9117 1.06039C52.4938 0.374977 51.7425 0.0575562 50.4565 0.0575562C49.1705 0.0575562 47.6493 0.608884 46.7303 0.976545C45.8026 1.33441 44.9765 1.91378 44.3241 2.66413L41.5169 13.2085Z" fill="#292929"/>
<path d="M47.583 34.2521V39.3413C47.583 39.3413 47.9285 39.386 48.686 38.9498C49.4435 38.5136 53.5762 35.1763 54.1666 34.8977C54.7571 34.6191 56.2163 33.8061 57.4642 35.1205C58.712 36.4349 59.9817 38.3368 60.6726 39.1057C61.3636 39.8747 61.4634 39.9301 61.8758 40.3979C62.7095 41.3281 63.7917 42.0006 64.9948 42.3364C67.8595 43.0774 70.8774 42.9729 73.684 42.0356C77.5827 40.7992 78.6753 40.2309 79.7662 38.7606C80.8571 37.2903 80.4679 34.6641 80.2555 34.3075C80.1308 34.1019 80.0439 33.8755 79.9991 33.6391C79.5835 33.6702 79.1783 33.7838 78.8071 33.9732C78.2055 34.285 77.37 34.6641 76.6458 35.0314C75.9216 35.3988 73.2817 36.1119 73.0478 36.1566C72.8139 36.2013 71.4323 36.2789 71.0203 36.0786C70.5324 35.8504 70.1106 35.5016 69.795 35.065C69.3024 34.315 68.8595 33.5336 68.4692 32.7257C68.2353 32.1577 67.6784 31.0994 67.4889 29.9742C67.2993 28.8491 66.7536 27.7128 66.4306 27.4678C65.4234 26.8353 64.3321 26.3478 63.1888 26.0197C61.6738 25.5851 60.7046 25.8527 60.3705 26.0197C60.0365 26.1867 59.0894 26.5655 58.5547 26.8773C58.0201 27.1892 54.7336 29.2167 52.8288 30.4757C50.9239 31.7346 49.1525 32.9263 48.5956 33.3608C48.2152 33.6054 47.8739 33.9058 47.583 34.2521Z" fill="#292929"/>
<path d="M66.682 11.1705C66.682 11.1705 63.4739 12.2735 61.786 13.5768C60.0981 14.8801 59.9813 14.9639 59.8142 16.2336C59.6472 17.5033 60.0814 19.0065 61.6522 19.442C63.223 19.8776 65.1781 19.676 66.2309 19.4923C67.2836 19.3086 69.6889 18.4063 70.6924 17.5874C71.6959 16.7686 72.2129 15.5488 72.3633 15.3316C72.5137 15.1143 72.6896 14.4458 73.0318 13.7526C73.374 13.0594 73.7821 12.4076 73.7753 11.6386C73.7684 10.8697 73.6082 9.98433 71.7115 9.99281C69.8148 10.0013 67.8816 10.7141 66.682 11.1705Z" fill="#292929"/>
<path d="M107.234 18.6157C107.216 18.7074 107.17 18.79 107.097 18.8634C107.042 18.9184 106.968 18.9459 106.877 18.9459H98.0977C98.061 18.9459 98.0243 18.9643 97.9876 19.001C97.9693 19.0193 97.9601 19.0468 97.9601 19.0835L97.4372 23.3491C97.4372 23.4409 97.4739 23.4867 97.5473 23.4867H103.299C103.391 23.4867 103.464 23.5234 103.519 23.5968C103.574 23.6518 103.593 23.7252 103.574 23.817L103.244 26.4864C103.226 26.5781 103.18 26.6607 103.106 26.7341C103.051 26.7891 102.978 26.8166 102.886 26.8166H97.1345C97.0428 26.8166 96.9969 26.8625 96.9969 26.9542L96.4465 31.4125C96.4465 31.5042 96.4832 31.5501 96.5566 31.5501H105.308C105.51 31.5501 105.611 31.6602 105.611 31.8803L105.28 34.5498C105.262 34.6415 105.216 34.7241 105.143 34.7974C105.088 34.8525 105.014 34.88 104.923 34.88H92.5662C92.4744 34.88 92.4011 34.8525 92.346 34.7974C92.291 34.7241 92.2726 34.6415 92.291 34.5498L94.5751 15.9462C94.5935 15.8545 94.6302 15.7811 94.6852 15.7261C94.7586 15.6527 94.8412 15.616 94.9329 15.616H107.262C107.354 15.616 107.427 15.6527 107.482 15.7261C107.555 15.7811 107.583 15.8545 107.565 15.9462L107.234 18.6157ZM111.455 34.88C111.29 34.88 111.18 34.7883 111.125 34.6048L108.511 21.0925V21.0374C108.511 20.8173 108.621 20.7072 108.841 20.7072H112.281C112.483 20.7072 112.593 20.7989 112.611 20.9824L113.795 29.321C113.795 29.376 113.813 29.4035 113.85 29.4035C113.905 29.4035 113.941 29.376 113.96 29.321L117.152 20.9824C117.225 20.7989 117.363 20.7072 117.565 20.7072L121.005 20.7622C121.115 20.7622 121.188 20.7989 121.225 20.8723C121.28 20.9274 121.28 21.0191 121.225 21.1475L115.336 34.6048C115.244 34.7883 115.116 34.88 114.95 34.88H111.455ZM133.766 26.3488C133.784 26.9176 133.729 27.6973 133.601 28.688C133.546 28.9082 133.417 29.0182 133.216 29.0182H124.96C124.868 29.0182 124.822 29.0641 124.822 29.1558C124.84 29.5595 124.895 29.9264 124.987 30.2566C125.354 31.2841 126.235 31.7978 127.629 31.7978C128.748 31.7794 129.711 31.3024 130.519 30.3667C130.665 30.1649 130.803 30.1466 130.931 30.3117L132.638 32.2656C132.693 32.339 132.72 32.4124 132.72 32.4858C132.72 32.5775 132.684 32.6601 132.61 32.7334C131.931 33.4857 131.097 34.0728 130.106 34.4947C129.133 34.8984 128.097 35.1002 126.996 35.1002C125.473 35.1002 124.226 34.7424 123.253 34.0269C122.281 33.3114 121.639 32.3115 121.327 31.0272C121.18 30.5135 121.107 29.8622 121.107 29.0733C121.107 28.633 121.134 28.1651 121.189 27.6698C121.263 26.6424 121.51 25.67 121.932 24.7526C122.501 23.45 123.345 22.4134 124.464 21.6429C125.602 20.8723 126.868 20.487 128.262 20.487C130.042 20.487 131.399 21.0191 132.335 22.0832C133.271 23.1473 133.748 24.5692 133.766 26.3488ZM127.877 23.8445C126.739 23.8445 125.932 24.3857 125.455 25.4682C125.308 25.8351 125.207 26.1286 125.152 26.3488C125.152 26.4405 125.189 26.4864 125.262 26.4864H129.886C129.977 26.4864 130.023 26.4405 130.023 26.3488C130.023 26.1286 130.005 25.8718 129.968 25.5782C129.876 25.0278 129.647 24.6059 129.28 24.3123C128.932 24.0004 128.464 23.8445 127.877 23.8445ZM144.094 20.5146C145.378 20.5146 146.396 20.8815 147.148 21.6154C147.9 22.3492 148.277 23.3675 148.277 24.6701C148.277 24.8352 148.258 25.1196 148.222 25.5232L147.121 34.5498C147.102 34.6415 147.056 34.7241 146.983 34.7974C146.928 34.8525 146.855 34.88 146.763 34.88H143.653C143.451 34.88 143.35 34.7699 143.35 34.5498L144.369 26.3213C144.387 26.2296 144.396 26.0828 144.396 25.881C144.396 25.2755 144.222 24.7893 143.873 24.4224C143.525 24.0371 143.066 23.8445 142.497 23.8445C141.837 23.8445 141.277 24.0738 140.819 24.5325C140.36 24.9728 140.085 25.5691 139.993 26.3213L138.975 34.5498C138.956 34.6415 138.911 34.7241 138.837 34.7974C138.782 34.8525 138.709 34.88 138.617 34.88H135.507C135.416 34.88 135.342 34.8525 135.287 34.7974C135.232 34.7241 135.214 34.6415 135.232 34.5498L136.883 21.065C136.902 20.9732 136.938 20.8998 136.993 20.8448C137.067 20.7714 137.149 20.7347 137.241 20.7347H140.351C140.443 20.7347 140.516 20.7714 140.571 20.8448C140.626 20.8998 140.644 20.9732 140.626 21.065L140.516 22.0282C140.516 22.0832 140.525 22.1199 140.543 22.1382C140.58 22.1566 140.617 22.1474 140.654 22.1107C141.479 21.0466 142.626 20.5146 144.094 20.5146ZM159.044 23.5142C159.026 23.606 158.98 23.6885 158.907 23.7619C158.852 23.817 158.778 23.8445 158.687 23.8445H156.127C156.054 23.8445 155.999 23.8904 155.962 23.9821L155.247 29.8163C155.228 29.9264 155.219 30.0732 155.219 30.2566C155.219 31.1556 155.659 31.6051 156.54 31.6051H157.421C157.512 31.6051 157.586 31.6418 157.641 31.7152C157.714 31.7702 157.742 31.8436 157.723 31.9354L157.393 34.5498C157.356 34.7699 157.237 34.8892 157.035 34.9075C156.302 34.9442 155.76 34.9626 155.412 34.9626C154.054 34.9626 153.036 34.7608 152.357 34.3571C151.697 33.9352 151.366 33.1738 151.366 32.073C151.366 31.9262 151.385 31.6877 151.421 31.3574L152.33 23.9821C152.366 23.8904 152.33 23.8445 152.219 23.8445H150.706C150.614 23.8445 150.541 23.817 150.486 23.7619C150.431 23.6885 150.412 23.606 150.431 23.5142L150.733 21.065C150.733 20.9732 150.77 20.8998 150.843 20.8448C150.917 20.7714 150.999 20.7347 151.091 20.7347H152.605C152.696 20.7347 152.742 20.6889 152.742 20.5971L153.155 17.3222C153.173 17.2305 153.21 17.1571 153.265 17.1021C153.339 17.0287 153.421 16.992 153.513 16.992H156.513C156.604 16.992 156.678 17.0287 156.733 17.1021C156.788 17.1571 156.806 17.2305 156.788 17.3222L156.375 20.5971C156.375 20.6889 156.421 20.7347 156.513 20.7347H159.072C159.164 20.7347 159.237 20.7714 159.292 20.8448C159.347 20.8998 159.365 20.9732 159.347 21.065L159.044 23.5142ZM165.768 35.1002C164.282 35.1002 163.052 34.6965 162.08 33.8893C161.108 33.082 160.511 31.9812 160.291 30.5869C160.218 30.2016 160.181 29.7246 160.181 29.1558C160.181 28.6972 160.209 28.2385 160.264 27.7798C160.41 26.624 160.658 25.6516 161.007 24.8627C161.594 23.5051 162.465 22.441 163.621 21.6704C164.777 20.8998 166.098 20.5146 167.584 20.5146C169.052 20.5146 170.253 20.8998 171.189 21.6704C172.125 22.4226 172.721 23.4776 172.978 24.8352C173.088 25.3489 173.143 25.9177 173.143 26.5414C173.143 26.9451 173.115 27.3395 173.06 27.7248C172.95 28.6421 172.712 29.5686 172.345 30.5043C171.776 31.9354 170.914 33.0637 169.758 33.8893C168.602 34.6965 167.272 35.1002 165.768 35.1002ZM166.18 31.7702C166.768 31.7702 167.281 31.5868 167.722 31.2198C168.18 30.8529 168.547 30.3484 168.822 29.7062C169.043 29.1008 169.189 28.4587 169.263 27.7798C169.318 27.3395 169.345 26.9267 169.345 26.5414C169.345 25.6975 169.153 25.037 168.767 24.56C168.382 24.083 167.832 23.8445 167.116 23.8445C166.529 23.8445 166.006 24.0188 165.547 24.3674C165.107 24.716 164.759 25.2021 164.502 25.8259C164.3 26.2662 164.153 26.9176 164.061 27.7798C164.006 28.2385 163.979 28.688 163.979 29.1283C163.979 29.9356 164.171 30.5777 164.557 31.0547C164.942 31.5317 165.483 31.7702 166.18 31.7702ZM180.052 35.0726C178.364 35.0726 177.034 34.7424 176.061 34.0819C175.089 33.4031 174.603 32.5133 174.603 31.4125C174.603 31.229 174.612 31.0822 174.63 30.9722L174.658 30.697C174.676 30.6052 174.713 30.5318 174.768 30.4768C174.841 30.4034 174.924 30.3667 175.015 30.3667H177.988C178.079 30.3667 178.153 30.4034 178.208 30.4768C178.263 30.5318 178.281 30.6052 178.263 30.697V30.7245C178.208 31.1281 178.382 31.4767 178.786 31.7702C179.189 32.0454 179.721 32.183 180.382 32.183C181.006 32.183 181.519 32.0546 181.923 31.7978C182.345 31.5226 182.556 31.1832 182.556 30.7795C182.556 30.486 182.4 30.2658 182.088 30.119C181.776 29.9539 181.299 29.7888 180.657 29.6237C179.85 29.3852 179.217 29.1742 178.758 28.9907C177.767 28.6238 176.979 28.1835 176.391 27.6698C175.804 27.1561 175.511 26.4314 175.511 25.4957C175.511 24.505 175.777 23.6335 176.309 22.8813C176.841 22.1291 177.575 21.5512 178.51 21.1475C179.446 20.7439 180.501 20.5421 181.675 20.5421C183.271 20.5421 184.528 20.909 185.446 21.6429C186.381 22.3584 186.849 23.3033 186.849 24.4774C186.849 24.716 186.84 24.8902 186.822 25.0003C186.803 25.0921 186.757 25.1746 186.684 25.248C186.629 25.303 186.556 25.3306 186.464 25.3306H183.602C183.51 25.3306 183.437 25.303 183.382 25.248C183.326 25.1746 183.308 25.0921 183.326 25.0003C183.363 24.5967 183.198 24.2573 182.831 23.9821C182.483 23.7069 181.978 23.5693 181.318 23.5693C180.694 23.5693 180.171 23.6885 179.749 23.927C179.345 24.1656 179.143 24.4958 179.143 24.9178C179.143 25.248 179.318 25.5049 179.666 25.6883C180.015 25.8534 180.584 26.0369 181.373 26.2387C182.033 26.4038 182.501 26.5323 182.776 26.624C183.895 26.9726 184.776 27.4221 185.418 27.9725C186.06 28.5045 186.381 29.2568 186.381 30.2291C186.381 30.4493 186.372 30.6236 186.354 30.752C186.17 32.1097 185.51 33.1738 184.372 33.9443C183.235 34.6965 181.795 35.0726 180.052 35.0726Z" fill="#51E678"/>
</svg>
