<svg width="28" height="28" viewBox="0 0 28 28" fill="none" xmlns="http://www.w3.org/2000/svg">
<path d="M17 24.5H24.5V3.5H3.5V24.5H14V17H11V14H14V11.519C14 9.5135 14.21 8.786 14.6 8.0525C14.9842 7.32678 15.5779 6.73353 16.304 6.35C16.877 6.0425 17.5895 5.858 18.8345 5.7785C19.328 5.747 19.967 5.786 20.7515 5.8985V8.7485H20C18.6245 8.7485 18.056 8.813 17.717 8.9945C17.5147 9.09854 17.35 9.26322 17.246 9.4655C17.066 9.8045 17 10.1405 17 11.5175V14H20.75L20 17H17V24.5ZM2 0.5H26C26.3978 0.5 26.7794 0.658035 27.0607 0.93934C27.342 1.22064 27.5 1.60218 27.5 2V26C27.5 26.3978 27.342 26.7794 27.0607 27.0607C26.7794 27.342 26.3978 27.5 26 27.5H2C1.60218 27.5 1.22064 27.342 0.93934 27.0607C0.658035 26.7794 0.5 26.3978 0.5 26V2C0.5 1.60218 0.658035 1.22064 0.93934 0.93934C1.22064 0.658035 1.60218 0.5 2 0.5Z" fill="#FCFCFC"/>
</svg>
