<svg width="610" height="580" viewBox="0 0 610 580" fill="none" xmlns="http://www.w3.org/2000/svg">
<path d="M147.224 163.632C127.971 170.659 109.063 179.702 94.1233 193.657C82.5652 204.45 73.7637 217.823 68.4481 232.668C63.1324 247.513 61.4558 263.402 63.5572 279.019C65.6586 294.636 71.4775 309.531 80.5316 322.468C89.5856 335.406 101.614 346.015 115.62 353.415C145.207 369.047 181.816 369.502 209.249 388.619C247.322 415.147 255.446 468.116 286.141 502.816C296.227 514.22 308.584 523.422 322.433 529.842C336.281 536.261 351.319 539.76 366.598 540.115C381.877 540.47 397.064 537.675 411.199 531.906C425.335 526.137 438.113 517.519 448.725 506.597C492.787 461.243 491.242 386.631 531.643 338.043C600.875 271.164 582.558 173.049 493.626 148.112C448.639 136.842 418.063 84.451 344.399 82.9166C234.62 83.4283 270.538 134.365 147.224 163.632Z" fill="#51E678"/>
</svg>
