<svg width="28" height="28" viewBox="0 0 28 28" fill="none" xmlns="http://www.w3.org/2000/svg">
<path d="M10.049 12.023C11.4565 14.4957 13.5043 16.5435 15.977 17.951L17.303 16.094C17.5162 15.7954 17.8315 15.5853 18.1892 15.5035C18.5469 15.4217 18.9222 15.4738 19.244 15.65C21.3655 16.8094 23.7083 17.5067 26.1185 17.696C26.4947 17.7258 26.8458 17.8963 27.1018 18.1735C27.3579 18.4507 27.5 18.8142 27.5 19.1915V25.8845C27.5001 26.2559 27.3624 26.6141 27.1136 26.8898C26.8647 27.1655 26.5225 27.3391 26.153 27.377C25.358 27.4595 24.557 27.5 23.75 27.5C10.91 27.5 0.5 17.09 0.5 4.25C0.5 3.443 0.5405 2.642 0.623 1.847C0.660882 1.47755 0.834476 1.13528 1.11018 0.886451C1.38589 0.637621 1.74411 0.49992 2.1155 0.5H8.8085C9.18584 0.499953 9.54934 0.642127 9.82652 0.898176C10.1037 1.15422 10.2742 1.50534 10.304 1.8815C10.4933 4.29169 11.1906 6.63452 12.35 8.756C12.5262 9.07785 12.5783 9.45311 12.4965 9.81079C12.4147 10.1685 12.2046 10.4838 11.906 10.697L10.049 12.023ZM6.266 11.0375L9.116 9.002C8.30717 7.25614 7.75303 5.40326 7.4705 3.5H3.515C3.506 3.749 3.5015 3.9995 3.5015 4.25C3.5 15.434 12.566 24.5 23.75 24.5C24.0005 24.5 24.251 24.4955 24.5 24.485V20.5295C22.5967 20.247 20.7439 19.6928 18.998 18.884L16.9625 21.734C16.143 21.4156 15.347 21.0396 14.5805 20.609L14.4935 20.5595C11.5514 18.8851 9.11492 16.4486 7.4405 13.5065L7.391 13.4195C6.96036 12.653 6.58442 11.857 6.266 11.0375Z" fill="#343332"/>
</svg>
