<svg width="28" height="28" viewBox="0 0 28 28" fill="none" xmlns="http://www.w3.org/2000/svg">
<path d="M2 0.5H26C26.3978 0.5 26.7794 0.658035 27.0607 0.93934C27.342 1.22064 27.5 1.60218 27.5 2V26C27.5 26.3978 27.342 26.7794 27.0607 27.0607C26.7794 27.342 26.3978 27.5 26 27.5H2C1.60218 27.5 1.22064 27.342 0.93934 27.0607C0.658035 26.7794 0.5 26.3978 0.5 26V2C0.5 1.60218 0.658035 1.22064 0.93934 0.93934C1.22064 0.658035 1.60218 0.5 2 0.5ZM3.5 3.5V24.5H24.5V3.5H3.5ZM7.25 9.5C6.65326 9.5 6.08097 9.26295 5.65901 8.84099C5.23705 8.41903 5 7.84674 5 7.25C5 6.65326 5.23705 6.08097 5.65901 5.65901C6.08097 5.23705 6.65326 5 7.25 5C7.84674 5 8.41903 5.23705 8.84099 5.65901C9.26295 6.08097 9.5 6.65326 9.5 7.25C9.5 7.84674 9.26295 8.41903 8.84099 8.84099C8.41903 9.26295 7.84674 9.5 7.25 9.5ZM5.75 11H8.75V22.25H5.75V11ZM14 11.645C14.876 10.7975 15.899 10.25 17 10.25C20.1065 10.25 22.25 12.7685 22.25 15.875V22.25H19.25V15.875C19.25 15.1788 18.9734 14.5111 18.4812 14.0188C17.9889 13.5266 17.3212 13.25 16.625 13.25C15.9288 13.25 15.2611 13.5266 14.7688 14.0188C14.2766 14.5111 14 15.1788 14 15.875V22.25H11V11H14V11.645Z" fill="#FCFCFC"/>
</svg>
