<svg width="269" height="459" viewBox="0 0 269 459" fill="none" xmlns="http://www.w3.org/2000/svg">
<path d="M-157.776 81.6319C-177.029 88.6586 -195.937 97.7023 -210.877 111.657C-222.435 122.45 -231.237 135.823 -236.552 150.668C-241.868 165.513 -243.545 181.402 -241.443 197.019C-239.342 212.636 -233.523 227.531 -224.469 240.468C-215.415 253.406 -203.386 264.015 -189.38 271.415C-159.794 287.047 -123.185 287.502 -95.7511 306.619C-57.6789 333.147 -49.5549 386.116 -18.8595 420.816C-8.77361 432.219 3.58377 441.422 17.4322 447.842C31.2806 454.261 46.319 457.76 61.5977 458.115C76.8763 458.47 92.0631 455.675 106.199 449.906C120.335 444.137 133.112 435.519 143.724 424.597C187.787 379.243 186.241 304.631 226.643 256.043C295.875 189.164 277.557 91.0491 188.626 66.1119C143.638 54.8417 113.062 2.45097 39.3988 0.916576C-70.3806 1.42831 -34.4621 52.3652 -157.776 81.6319Z" fill="#51E678"/>
</svg>
