<svg width="1159" height="1124" viewBox="0 0 1159 1124" fill="none" xmlns="http://www.w3.org/2000/svg">
<path d="M352.163 310.477C318.557 317.151 284.989 327.27 256.678 346.589C234.778 361.531 216.747 381.481 204.081 404.787C191.416 428.094 184.479 454.084 183.848 480.605C183.216 507.126 188.907 533.413 200.449 557.288C211.99 581.163 229.051 601.939 250.215 617.893C294.925 651.595 355.202 661.881 395.445 700.818C451.294 754.85 450.795 845.063 492.329 910.766C505.976 932.358 523.948 950.88 545.11 965.163C566.272 979.445 590.164 989.178 615.277 993.747C640.391 998.315 666.179 997.62 691.015 991.705C715.85 985.79 739.192 974.783 759.566 959.381C844.163 895.42 861.195 770.925 940.6 700.632C1072.37 607.423 1067.9 439.472 927.728 374.845C856.465 344.389 819.772 249.294 698.645 227.564C517.398 199.836 563.287 293.904 352.163 310.477Z" fill="#58CBFB" fill-opacity="0.9"/>
</svg>
