<svg width="425" height="775" viewBox="0 0 425 775" fill="none" xmlns="http://www.w3.org/2000/svg">
<path d="M169.163 88.4769C135.556 95.1513 101.988 105.27 73.6781 124.589C51.7772 139.531 33.7467 159.481 21.081 182.787C8.4153 206.094 1.47911 232.084 0.847337 258.605C0.215562 285.126 5.90637 311.413 17.4481 335.288C28.9899 359.163 46.0502 379.939 67.2151 395.893C111.924 429.595 172.202 439.881 212.444 478.818C268.293 532.85 267.795 623.063 309.329 688.766C322.975 710.358 340.947 728.88 362.109 743.163C383.271 757.445 407.164 767.178 432.277 771.747C457.39 776.315 483.179 775.62 508.014 769.705C532.849 763.79 556.191 752.783 576.566 737.381C661.162 673.42 678.194 548.925 757.6 478.632C889.371 385.423 884.901 217.472 744.727 152.845C673.465 122.389 636.771 27.2936 515.645 5.56443C334.397 -22.164 380.287 71.9042 169.163 88.4769Z" fill="#58CBFB" fill-opacity="0.9"/>
</svg>
