<svg width="815" height="810" viewBox="0 0 815 810" fill="none" xmlns="http://www.w3.org/2000/svg">
<path d="M672.896 313.967C687.671 369.803 690.445 425.863 680.414 479.609C670.616 533.068 647.96 583.701 610.879 616.55C573.561 649.679 522.044 664.73 474.27 668.171C426.782 671.843 382.99 663.39 341.906 653.349C300.306 643.362 261.645 631.501 222.867 611.044C179.913 589.051 141.648 558.954 110.194 522.422C75.5567 481.707 44.8431 428.58 56.1394 384.351C67.4356 340.123 121.028 305.033 169.305 284.058C217.865 263.321 261.122 256.696 299.701 252.915C337.988 248.898 371.092 247.778 421.36 230.771C471.109 213.818 538.073 181.497 585.013 192.489C631.433 203.535 658.4 258.36 672.896 313.967Z" fill="#51E678" fill-opacity="0.9"/>
</svg>
