<svg width="23" height="21" viewBox="0 0 23 21" fill="none" xmlns="http://www.w3.org/2000/svg">
<path d="M11.801 1.90639C14.3457 -0.378355 18.2782 -0.302522 20.7298 2.1534C23.1803 4.61039 23.2648 8.5234 20.9855 11.0757L11.7988 20.2754L2.61431 11.0757C0.334976 8.5234 0.420559 4.6039 2.86998 2.1534C5.32373 -0.299272 9.24864 -0.381605 11.801 1.90639ZM19.1958 3.68415C17.5708 2.05698 14.9491 1.9909 13.2483 3.5184L11.8021 4.81623L10.3547 3.51948C8.64848 1.98981 6.03223 2.05698 4.40289 3.68631C2.78873 5.30048 2.70748 7.88423 4.19489 9.59156L11.7999 17.2085L19.4049 9.59264C20.8934 7.88423 20.8121 5.30373 19.1958 3.68415Z" fill="#343332"/>
</svg>
