<svg width="36" height="36" viewBox="0 0 36 36" fill="none" xmlns="http://www.w3.org/2000/svg">
<path d="M18 12.6C16.5678 12.6 15.1943 13.1689 14.1816 14.1816C13.1689 15.1943 12.6 16.5678 12.6 18C12.6 19.4322 13.1689 20.8057 14.1816 21.8184C15.1943 22.8311 16.5678 23.4 18 23.4C19.4322 23.4 20.8057 22.8311 21.8184 21.8184C22.8311 20.8057 23.4 19.4322 23.4 18C23.4 16.5678 22.8311 15.1943 21.8184 14.1816C20.8057 13.1689 19.4322 12.6 18 12.6ZM18 9C20.3869 9 22.6761 9.94821 24.364 11.636C26.0518 13.3239 27 15.6131 27 18C27 20.3869 26.0518 22.6761 24.364 24.364C22.6761 26.0518 20.3869 27 18 27C15.6131 27 13.3239 26.0518 11.636 24.364C9.94821 22.6761 9 20.3869 9 18C9 15.6131 9.94821 13.3239 11.636 11.636C13.3239 9.94821 15.6131 9 18 9ZM29.7 8.55C29.7 9.14674 29.4629 9.71903 29.041 10.141C28.619 10.5629 28.0467 10.8 27.45 10.8C26.8533 10.8 26.281 10.5629 25.859 10.141C25.437 9.71903 25.2 9.14674 25.2 8.55C25.2 7.95326 25.437 7.38097 25.859 6.95901C26.281 6.53705 26.8533 6.3 27.45 6.3C28.0467 6.3 28.619 6.53705 29.041 6.95901C29.4629 7.38097 29.7 7.95326 29.7 8.55ZM18 3.6C13.5468 3.6 12.8196 3.6126 10.7478 3.7044C9.3366 3.771 8.3898 3.96 7.5114 4.302C6.7302 4.6044 6.1668 4.9662 5.5674 5.5674C5.00401 6.11172 4.57084 6.77625 4.3002 7.5114C3.9582 8.3934 3.7692 9.3384 3.7044 10.7478C3.6108 12.735 3.6 13.4298 3.6 18C3.6 22.4532 3.6126 23.1804 3.7044 25.2522C3.771 26.6616 3.96 27.6102 4.3002 28.4868C4.6062 29.2698 4.9662 29.8332 5.5638 30.4308C6.1704 31.0356 6.7338 31.3974 7.5078 31.6962C8.397 32.04 9.3438 32.2308 10.7478 32.2956C12.735 32.3892 13.4298 32.4 18 32.4C22.4532 32.4 23.1804 32.3874 25.2522 32.2956C26.6598 32.229 27.6084 32.04 28.4868 31.6998C29.2662 31.3956 29.8332 31.0338 30.4308 30.4362C31.0374 29.8296 31.3992 29.2662 31.698 28.4922C32.04 27.6048 32.2308 26.6562 32.2956 25.2522C32.3892 23.265 32.4 22.5702 32.4 18C32.4 13.5468 32.3874 12.8196 32.2956 10.7478C32.229 9.3402 32.04 8.3898 31.698 7.5114C31.4267 6.777 30.9943 6.11273 30.4326 5.5674C29.8885 5.00372 29.2239 4.5705 28.4886 4.3002C27.6066 3.9582 26.6598 3.7692 25.2522 3.7044C23.265 3.6108 22.5702 3.6 18 3.6ZM18 0C22.8906 0 23.5008 0.0179999 25.4196 0.108C27.3366 0.198 28.6416 0.4986 29.79 0.945C30.978 1.4022 31.9788 2.0214 32.9796 3.0204C33.8949 3.92021 34.6031 5.00866 35.055 6.21C35.4996 7.3566 35.802 8.6634 35.892 10.5804C35.9766 12.4992 36 13.1094 36 18C36 22.8906 35.982 23.5008 35.892 25.4196C35.802 27.3366 35.4996 28.6416 35.055 29.79C34.6044 30.992 33.896 32.0807 32.9796 32.9796C32.0795 33.8946 30.9912 34.6028 29.79 35.055C28.6434 35.4996 27.3366 35.802 25.4196 35.892C23.5008 35.9766 22.8906 36 18 36C13.1094 36 12.4992 35.982 10.5804 35.892C8.6634 35.802 7.3584 35.4996 6.21 35.055C5.00819 34.6041 3.91955 33.8957 3.0204 32.9796C2.10493 32.0799 1.39668 30.9914 0.945 29.79C0.4986 28.6434 0.198 27.3366 0.108 25.4196C0.0233999 23.5008 0 22.8906 0 18C0 13.1094 0.0179999 12.4992 0.108 10.5804C0.198 8.6616 0.4986 7.3584 0.945 6.21C1.39543 5.00792 2.10385 3.91918 3.0204 3.0204C3.91981 2.10462 5.00837 1.39631 6.21 0.945C7.3584 0.4986 8.6616 0.198 10.5804 0.108C12.4992 0.0233999 13.1094 0 18 0Z" fill="#292929"/>
</svg>
