<svg width="36" height="36" viewBox="0 0 36 36" fill="none" xmlns="http://www.w3.org/2000/svg">
<path d="M2 0H34C34.5304 0 35.0391 0.210714 35.4142 0.585786C35.7893 0.960859 36 1.46957 36 2V34C36 34.5304 35.7893 35.0391 35.4142 35.4142C35.0391 35.7893 34.5304 36 34 36H2C1.46957 36 0.960859 35.7893 0.585786 35.4142C0.210714 35.0391 0 34.5304 0 34V2C0 1.46957 0.210714 0.960859 0.585786 0.585786C0.960859 0.210714 1.46957 0 2 0ZM4 4V32H32V4H4ZM9 12C8.20435 12 7.44129 11.6839 6.87868 11.1213C6.31607 10.5587 6 9.79565 6 9C6 8.20435 6.31607 7.44129 6.87868 6.87868C7.44129 6.31607 8.20435 6 9 6C9.79565 6 10.5587 6.31607 11.1213 6.87868C11.6839 7.44129 12 8.20435 12 9C12 9.79565 11.6839 10.5587 11.1213 11.1213C10.5587 11.6839 9.79565 12 9 12ZM7 14H11V29H7V14ZM18 14.86C19.168 13.73 20.532 13 22 13C26.142 13 29 16.358 29 20.5V29H25V20.5C25 19.5717 24.6313 18.6815 23.9749 18.0251C23.3185 17.3687 22.4283 17 21.5 17C20.5717 17 19.6815 17.3687 19.0251 18.0251C18.3687 18.6815 18 19.5717 18 20.5V29H14V14H18V14.86Z" fill="#292929"/>
</svg>
