<svg width="84" height="45" viewBox="0 0 84 45" fill="none" xmlns="http://www.w3.org/2000/svg">
<path d="M23.1825 23.3248C23.1006 23.4782 22.9803 23.6075 22.8335 23.6998C22.6867 23.792 22.5185 23.8441 22.3456 23.8509C21.7614 23.8597 20.8111 23.1144 20.6455 22.9828C20.4798 22.8512 19.0501 21.3429 17.9516 20.8869C17.3602 20.6332 16.719 20.5186 16.0769 20.5521C15.4348 20.5855 14.8087 20.766 14.2465 21.0797C14.2465 21.0797 11.6872 22.3718 10.1753 26.9324C8.66337 31.4929 8.64095 35.1878 10.2683 36.5208C11.8956 37.8538 13.802 36.8246 15.0808 36.2868C16.3595 35.7491 18.4985 34.4628 19.2189 34.3926C19.9393 34.3224 20.4045 34.5095 20.1487 35.7722C19.8929 37.035 18.0332 41.9314 17.5681 42.6323C16.4493 43.4767 15.1924 44.1178 13.8542 44.5266C11.9542 45.0841 9.94521 45.1504 8.01304 44.7194C6.26936 44.3516 4.29327 43.1701 2.50317 41.2291C0.713077 39.2882 -0.356274 35.3039 0.108697 30.5792C0.573667 25.8546 3.34013 20.5933 6.50192 17.3893C9.66372 14.1854 12.4998 13.1096 15.2898 12.9927C18.0798 12.8758 21.5957 14.4134 23.6354 17.1503C23.7235 17.2845 23.7884 17.4327 23.8271 17.5888C23.8271 17.5888 24.0195 22.2432 23.1825 23.3248Z" fill="#292929"/>
<path d="M37.393 13.8639L29.5642 44.9762H24.6999C24.6999 44.9762 22.4505 45.064 21.8402 44.2566C21.23 43.4492 21.3521 42.7132 21.7183 40.9591C22.0846 39.2051 27.2455 18.5465 27.2455 18.5465C27.2455 18.5465 27.9608 15.6701 28.6404 14.9326C29.32 14.1951 30.1747 13.8627 31.7267 13.8627L37.393 13.8639Z" fill="#292929"/>
<path d="M35.9807 0.0018292C35.9807 0.0018292 38.4741 -0.103391 39.7641 1.28221C41.0541 2.66782 40.5835 4.28146 40.0779 5.05317C39.5722 5.82489 38.2298 7.96478 34.0798 7.96478C29.9299 7.96478 29.8778 5.26361 29.8778 4.80755C29.8778 4.80755 29.843 3.42195 31.046 2.15899C32.249 0.896036 33.6799 0.0018292 35.9807 0.0018292Z" fill="#292929"/>
<path d="M43.3214 13.864H39.3632L37.6894 20.6519H41.6476L35.4577 44.9783H41.7348C41.7348 44.9783 44.4198 45.0806 45.3615 41.5027C46.3032 37.9247 50.5923 20.6686 50.5923 20.6686H54.1492C54.1492 20.6686 55.1781 20.6686 55.5615 20.3879C55.9449 20.1073 56.3288 20.0021 56.6251 18.8267C56.9214 17.6514 57.5144 15.354 57.5144 15.354C57.5144 15.354 57.7062 14.6875 57.3052 14.3191C56.9352 14.0066 56.4627 13.844 55.98 13.863H52.4753L55.3356 2.83143C55.3356 2.83143 55.6494 1.83168 55.2135 1.11258C54.7776 0.393467 53.9923 0.0600586 52.6491 0.0600586C51.3059 0.0600586 49.7199 0.638767 48.7608 1.02479C47.8018 1.4108 46.7382 2.12975 46.2492 2.79625L43.3214 13.864Z" fill="#292929"/>
<path d="M49.6509 35.9529V41.2939C49.6509 41.2939 50.0112 41.3406 50.8018 40.8847C51.5923 40.4288 55.9045 36.9239 56.5207 36.6311C57.1368 36.3383 58.6595 35.4852 59.9615 36.865C61.2634 38.2449 62.5885 40.241 63.3092 41.0481C64.03 41.8551 64.1344 41.9132 64.5651 42.4044C65.4351 43.3808 66.5644 44.0867 67.8199 44.4391C69.5518 44.9188 72.8182 45.4214 76.8867 44.1233C80.9552 42.8252 82.0942 42.229 83.2335 40.6853C84.3728 39.1415 83.9657 36.3855 83.7449 36.0111C83.6148 35.7953 83.5242 35.5577 83.4775 35.3096C83.0439 35.3423 82.6211 35.4616 82.2338 35.6603C81.606 35.9878 80.7341 36.3855 79.9786 36.7712C79.223 37.1569 76.4682 37.9054 76.224 37.9523C75.9798 37.9991 74.539 38.0802 74.1083 37.8704C73.5992 37.6308 73.1591 37.2646 72.8298 36.8064C72.5042 36.3153 71.6905 34.9473 71.4468 34.3508C71.2031 33.7544 70.6216 32.6436 70.4239 31.4627C70.2261 30.2818 69.6567 29.089 69.3195 28.8317C68.9824 28.5744 67.5178 27.7677 65.9369 27.3116C64.356 26.8556 63.3449 27.1357 62.9961 27.3116C62.6473 27.4875 61.6594 27.8846 61.1014 28.2119C60.5434 28.5393 57.1144 30.6675 55.1266 31.9888C53.1387 33.3101 51.2906 34.5613 50.7094 35.0173C50.1282 35.4734 49.9297 35.5786 49.6509 35.9529Z" fill="#292929"/>
<path d="M69.5804 11.7248C69.5804 11.7248 66.2326 12.8824 64.4716 14.2505C62.7106 15.6187 62.5885 15.7057 62.4141 17.0393C62.2397 18.373 62.6931 19.951 64.3322 20.407C65.9713 20.8631 68.0112 20.6525 69.1097 20.4596C70.2081 20.2668 72.719 19.3196 73.7651 18.4608C74.8113 17.6019 75.3519 16.321 75.5086 16.093C75.6654 15.865 75.8487 15.1633 76.2062 14.4356C76.5637 13.7078 76.9907 13.0236 76.9821 12.2168C76.9735 11.4101 76.8072 10.4804 74.8287 10.4898C72.8503 10.4993 70.8319 11.2459 69.5804 11.7248Z" fill="#292929"/>
</svg>
