<svg width="95" height="79" viewBox="0 0 95 79" fill="none" xmlns="http://www.w3.org/2000/svg">
<g clip-path="url(#clip0)">
<path d="M29.7153 23.7197C29.6315 23.8757 29.5084 24.0071 29.3582 24.1009C29.208 24.1947 29.0359 24.2477 28.859 24.2546C28.2614 24.2636 27.2891 23.5055 27.1199 23.3718C26.9506 23.2381 25.4881 21.7041 24.364 21.2402C23.759 20.9821 23.1031 20.8656 22.4462 20.8996C21.7893 20.9335 21.1489 21.1171 20.5738 21.4363C20.5738 21.4363 17.9548 22.7502 16.409 27.3879C14.8632 32.0257 14.8395 35.7831 16.504 37.1385C18.1686 38.4938 20.119 37.4477 21.427 36.9006C22.735 36.3535 24.9229 35.0456 25.6601 34.9742C26.3973 34.9028 26.873 35.0929 26.6115 36.3772C26.3499 37.6615 24.4472 42.6409 23.9715 43.3541C22.8271 44.2128 21.5414 44.8648 20.1723 45.2805C18.2287 45.8474 16.1735 45.9148 14.197 45.4765C12.413 45.1018 10.3919 43.9008 8.56052 41.927C6.72916 39.9532 5.63534 35.9026 6.11103 31.097C6.58672 26.2914 9.4168 20.9418 12.6512 17.6838C15.8856 14.4257 18.7871 13.3308 21.6412 13.2124C24.4953 13.0941 28.0922 14.6573 30.1791 17.4396C30.2692 17.5761 30.3355 17.7268 30.3752 17.8854C30.3752 17.8854 30.5712 22.6199 29.7153 23.7197Z" fill="#292929"/>
<path d="M44.2519 14.0985L36.2425 45.7379H31.2663C31.2663 45.7379 28.9651 45.827 28.3411 45.0066C27.7171 44.1861 27.8418 43.4371 28.2165 41.6531C28.5912 39.8691 33.8707 18.8609 33.8707 18.8609C33.8707 18.8609 34.602 15.9358 35.2985 15.1864C35.9949 14.437 36.8679 14.0985 38.4555 14.0985H44.2519Z" fill="#292929"/>
<path d="M42.8073 0.00171932C42.8073 0.00171932 45.3581 -0.105188 46.6779 1.30376C47.1623 1.80962 47.4585 2.46638 47.5169 3.16432C47.5753 3.86227 47.3925 4.55913 46.999 5.1385C46.4818 5.92341 45.1084 8.09847 40.8631 8.09847C36.6178 8.09847 36.5645 5.35161 36.5645 4.88777C36.6139 3.87259 37.04 2.91229 37.7597 2.19454C38.3889 1.48142 39.1672 0.91535 40.0395 0.536412C40.9117 0.157474 41.8566 -0.025065 42.8073 0.00171932Z" fill="#292929"/>
<path d="M50.3167 14.0985H46.2678L44.5555 21.0015H48.6044L42.2725 45.741H48.6939C48.6939 45.741 51.4408 45.8454 52.404 42.2064C53.3672 38.5674 57.7549 21.0193 57.7549 21.0193H61.3936C61.3936 21.0193 62.4459 21.0193 62.8384 20.7341C63.2309 20.4489 63.6233 20.3416 63.9266 19.1465C64.2299 17.9513 64.8362 15.6147 64.8362 15.6147C64.8362 15.6147 65.0326 14.937 64.6224 14.5623C64.2439 14.2445 63.7606 14.0792 63.2667 14.0985H59.6799L62.6051 2.87914C62.6051 2.87914 62.9262 1.86265 62.4801 1.13101C62.034 0.399377 61.232 0.0605469 59.8593 0.0605469C58.4865 0.0605469 56.8627 0.64906 55.8818 1.04152C54.8915 1.42352 54.0097 2.04196 53.3132 2.84292L50.3167 14.0985Z" fill="#292929"/>
<path d="M56.7917 36.5613V41.9938C56.7917 41.9938 57.1605 42.0415 57.9691 41.5759C58.7777 41.1103 63.1891 37.5479 63.8194 37.2505C64.4497 36.9531 66.0073 36.0853 67.3393 37.4883C68.6713 38.8914 70.0266 40.9216 70.7642 41.7424C71.5017 42.5631 71.6083 42.6223 72.0485 43.1217C72.9385 44.1146 74.0936 44.8325 75.3779 45.1909C78.4358 45.9819 81.6573 45.8704 84.6531 44.8698C88.8148 43.55 89.981 42.9434 91.1455 41.3739C92.31 39.8044 91.8946 37.0012 91.6679 36.6205C91.5347 36.401 91.442 36.1593 91.3942 35.907C90.9506 35.9403 90.518 36.0615 90.1217 36.2636C89.4796 36.5965 88.5878 37.0012 87.8147 37.3933C87.0416 37.7854 84.2237 38.5466 83.974 38.5943C83.7243 38.642 82.2496 38.7249 81.8098 38.5111C81.2889 38.2675 80.8388 37.8951 80.5018 37.4291C79.976 36.6286 79.5033 35.7944 79.0866 34.932C78.8369 34.3257 78.2425 33.196 78.0402 31.995C77.8378 30.7939 77.2552 29.581 76.9105 29.3195C75.8353 28.6443 74.6704 28.1239 73.4501 27.7737C71.8329 27.3099 70.7983 27.5954 70.4417 27.7737C70.0851 27.952 69.0742 28.3563 68.5035 28.6892C67.9327 29.0221 64.4246 31.1864 62.3913 32.5302C60.3579 33.874 58.4671 35.1461 57.8726 35.61C57.4666 35.871 57.1022 36.1917 56.7917 36.5613Z" fill="#292929"/>
<path d="M77.179 11.9231C77.179 11.9231 73.7545 13.1005 71.9527 14.4916C70.151 15.8828 70.0263 15.9723 69.848 17.3276C69.6697 18.683 70.1332 20.2876 71.81 20.7525C73.4867 21.2174 75.5737 21.0022 76.6974 20.8061C77.8212 20.6101 80.3887 19.6469 81.4598 18.7728C82.531 17.8987 83.083 16.5967 83.2435 16.3648C83.404 16.1329 83.5917 15.4193 83.957 14.6793C84.3223 13.9393 84.758 13.2436 84.7507 12.4228C84.7433 11.602 84.5724 10.6569 82.5477 10.666C80.5231 10.675 78.4595 11.4359 77.179 11.9231Z" fill="#292929"/>
<path d="M15.5783 56.1732C15.5416 56.3566 15.4408 56.4483 15.2757 56.4483H5.45451C5.39949 56.4483 5.35364 56.4849 5.31696 56.5583L4.49165 63.3534C4.49165 63.4267 4.52833 63.4634 4.60169 63.4634H11.4793C11.6627 63.4634 11.736 63.5551 11.6994 63.7385L11.5618 64.8939C11.5251 65.0774 11.4243 65.1691 11.2592 65.1691H4.38161C4.30825 65.1691 4.27157 65.2057 4.27157 65.2791L3.41875 72.1842C3.41875 72.2576 3.44626 72.2942 3.50128 72.2942H13.3225C13.4875 72.2942 13.5701 72.3859 13.5701 72.5693L13.405 73.7248C13.405 73.7981 13.3775 73.8623 13.3225 73.9173C13.2675 73.9724 13.1941 73.9999 13.1024 73.9999H1.54804C1.47468 73.9999 1.41049 73.9724 1.35547 73.9173C1.31879 73.8623 1.30962 73.7981 1.32796 73.7248L3.63883 55.0177C3.63883 54.9444 3.66634 54.8802 3.72136 54.8252C3.77638 54.7701 3.84057 54.7426 3.91393 54.7426H15.4683C15.56 54.7426 15.6242 54.7701 15.6609 54.8252C15.7159 54.8802 15.7342 54.9444 15.7159 55.0177L15.5783 56.1732ZM20.5003 73.9999C20.3536 73.9999 20.2619 73.9265 20.2252 73.7798L17.4742 60.3822V60.3272C17.4742 60.1622 17.5567 60.0796 17.7218 60.0796H19.2623C19.4091 60.0796 19.5008 60.153 19.5375 60.2997L21.5732 71.0838C21.5732 71.1205 21.5916 71.1388 21.6282 71.1388C21.6649 71.1388 21.6924 71.1205 21.7108 71.0838L26.3875 60.2997C26.4059 60.2264 26.4517 60.1713 26.5251 60.1347C26.5984 60.098 26.6626 60.0796 26.7177 60.0796L28.2582 60.1071C28.3499 60.1071 28.405 60.1347 28.4233 60.1897C28.46 60.2447 28.46 60.3181 28.4233 60.4098L22.3985 73.7798C22.3802 73.8532 22.3343 73.9082 22.261 73.9449C22.1876 73.9815 22.1234 73.9999 22.0684 73.9999H20.5003ZM40.7847 64.7014C40.7847 65.3983 40.7022 66.3337 40.5371 67.5074C40.5371 67.5808 40.5096 67.645 40.4546 67.7C40.3995 67.755 40.3262 67.7825 40.2345 67.7825H31.6237C31.5504 67.7825 31.5137 67.8192 31.5137 67.8926C31.4403 68.6995 31.4037 69.2131 31.4037 69.4332C31.4037 70.3685 31.6971 71.1205 32.284 71.689C32.8892 72.2392 33.7329 72.5143 34.8149 72.5143C35.5852 72.5143 36.2638 72.3401 36.8507 71.9916C37.4559 71.6432 37.9603 71.148 38.3638 70.5061C38.5105 70.341 38.6389 70.3043 38.7489 70.396L39.7118 71.0288C39.8585 71.1205 39.8768 71.2488 39.7668 71.4139C39.2166 72.2942 38.4646 72.9912 37.511 73.5047C36.5756 73.9999 35.521 74.2475 34.3473 74.2475C33.0818 74.2291 32.0639 73.9173 31.2936 73.3121C30.5233 72.7069 30.0098 71.8632 29.753 70.7812C29.643 70.3043 29.588 69.7725 29.588 69.1856C29.588 68.5437 29.643 67.81 29.753 66.9847C29.8447 66.1961 29.9364 65.5634 30.0281 65.0865C30.1198 64.6097 30.2391 64.1787 30.3858 63.7935C30.8259 62.6014 31.5504 61.6477 32.5591 60.9325C33.5678 60.2172 34.7232 59.8596 36.0254 59.8596C37.6393 59.8596 38.8315 60.2814 39.6017 61.125C40.372 61.9687 40.7663 63.1608 40.7847 64.7014ZM35.8053 61.5652C34.9433 61.5652 34.1914 61.8036 33.5495 62.2805C32.9259 62.739 32.4674 63.3625 32.1739 64.1512C32.0456 64.518 31.8988 65.1415 31.7338 66.0219C31.7338 66.0952 31.7705 66.1319 31.8438 66.1319H38.7489C38.8223 66.1319 38.859 66.0952 38.859 66.0219C38.8956 65.2883 38.914 64.8206 38.914 64.6188C38.914 63.7018 38.6389 62.9682 38.0887 62.418C37.5385 61.8495 36.7773 61.5652 35.8053 61.5652ZM50.8425 59.8871C52.1263 59.8871 53.1351 60.2447 53.8687 60.96C54.6023 61.6752 54.9691 62.6473 54.9691 63.8761C54.9691 64.0228 54.9507 64.2796 54.9141 64.6464L53.8136 73.7248C53.777 73.9082 53.6761 73.9999 53.511 73.9999H52.1355C52.0621 73.9999 51.998 73.9724 51.9429 73.9173C51.9063 73.8623 51.8971 73.7981 51.9154 73.7248L52.9883 65.0315C53.0067 64.9031 53.0158 64.7197 53.0158 64.4813C53.0158 63.601 52.7591 62.904 52.2455 62.3905C51.7504 61.8586 51.0718 61.5927 50.2098 61.5927C49.2194 61.5927 48.3849 61.9045 47.7063 62.5281C47.0278 63.1516 46.6243 63.9678 46.4959 64.9765L45.423 73.7248C45.423 73.7981 45.3955 73.8623 45.3404 73.9173C45.2854 73.9724 45.2121 73.9999 45.1204 73.9999H43.7724C43.6073 73.9999 43.5248 73.9082 43.5248 73.7248L45.1754 60.3547C45.2121 60.1713 45.3129 60.0796 45.478 60.0796H46.826C46.9177 60.0796 46.9819 60.1071 47.0186 60.1622C47.0736 60.2172 47.0919 60.2814 47.0736 60.3547L46.936 61.5377C46.9177 61.5744 46.9177 61.6019 46.936 61.6202C46.9727 61.6386 47.0094 61.6294 47.0461 61.5927C47.4863 61.0242 48.0273 60.6023 48.6692 60.3272C49.3295 60.0338 50.0539 59.8871 50.8425 59.8871ZM65.5176 61.4276C65.4992 61.501 65.4626 61.5652 65.4075 61.6202C65.3525 61.6752 65.2883 61.7027 65.215 61.7027H62.1888C62.1155 61.7027 62.0788 61.7394 62.0788 61.8128L61.0609 69.9283C61.0426 70.0751 61.0334 70.2676 61.0334 70.5061C61.0334 71.1663 61.2076 71.634 61.5561 71.9091C61.9045 72.1842 62.4364 72.3217 63.1517 72.3217H63.8119C63.977 72.3217 64.0595 72.4134 64.0595 72.5968L63.922 73.7248C63.8853 73.9082 63.7844 73.9999 63.6194 73.9999C63.3993 74.0182 63.0692 74.0274 62.629 74.0274C61.4736 74.0274 60.5932 73.8348 59.988 73.4497C59.4011 73.0645 59.1077 72.3584 59.1077 71.3314C59.1077 71.1663 59.126 70.9004 59.1627 70.5336L60.2356 61.8128C60.2356 61.7394 60.1989 61.7027 60.1255 61.7027H58.5024C58.319 61.7027 58.2457 61.611 58.2824 61.4276L58.3924 60.3547C58.4107 60.2814 58.4474 60.2172 58.5024 60.1622C58.5575 60.1071 58.6216 60.0796 58.695 60.0796H60.3456C60.364 60.0796 60.3823 60.0705 60.4006 60.0521C60.4373 60.0338 60.4557 60.0063 60.4557 59.9696L60.8408 56.7784C60.8775 56.595 60.9784 56.5033 61.1434 56.5033H62.4639C62.5373 56.5033 62.5923 56.5308 62.629 56.5858C62.684 56.6408 62.7023 56.705 62.684 56.7784L62.2989 59.9696C62.2989 60.043 62.3264 60.0796 62.3814 60.0796H65.4075C65.5909 60.0796 65.6643 60.1713 65.6276 60.3547L65.5176 61.4276ZM72.3096 74.22C71.0258 74.22 69.9621 73.8807 69.1184 73.2021C68.2748 72.5235 67.7521 71.5881 67.5503 70.396C67.4953 70.0109 67.4678 69.5707 67.4678 69.0755C67.4678 68.5253 67.5137 67.8376 67.6054 67.0122C67.7704 65.6184 68.0272 64.4996 68.3756 63.656C68.8525 62.4822 69.5953 61.556 70.604 60.8774C71.631 60.1988 72.7956 59.8596 74.0978 59.8596C75.3633 59.8596 76.4087 60.1988 77.234 60.8774C78.0776 61.556 78.6003 62.473 78.8021 63.6285C78.8754 63.9769 78.9121 64.4079 78.9121 64.9215C78.9121 65.3249 78.8571 66.0219 78.7471 67.0122C78.5636 68.4795 78.3069 69.6074 77.9768 70.396C77.4999 71.5881 76.7571 72.5235 75.7484 73.2021C74.7397 73.8807 73.5934 74.22 72.3096 74.22ZM72.5297 72.5143C73.3734 72.5143 74.1253 72.2759 74.7856 71.799C75.4641 71.3039 75.9593 70.6436 76.2711 69.8183C76.5095 69.1947 76.7021 68.2686 76.8488 67.0398C76.9589 66.1778 77.0139 65.4625 77.0139 64.8939C77.0139 64.6005 77.0047 64.3896 76.9864 64.2612C76.8763 63.4359 76.5371 62.7848 75.9685 62.308C75.4183 61.8128 74.7122 61.5652 73.8502 61.5652C72.9882 61.5652 72.2271 61.8128 71.5668 62.308C70.9066 62.7848 70.4114 63.4359 70.0813 64.2612C69.8612 64.8664 69.6778 65.7926 69.5311 67.0398C69.421 67.8651 69.366 68.5712 69.366 69.1581C69.366 69.4698 69.3752 69.6899 69.3935 69.8183C69.4852 70.6436 69.8062 71.3039 70.3564 71.799C70.9249 72.2759 71.6494 72.5143 72.5297 72.5143ZM86.183 74.1374C84.7708 74.1374 83.6429 73.8256 82.7992 73.2021C81.9556 72.5785 81.5338 71.7899 81.5338 70.8362C81.5338 70.6895 81.5429 70.5703 81.5613 70.4786L81.5888 70.1484C81.6255 69.965 81.7263 69.8733 81.8914 69.8733H83.1844C83.2577 69.8733 83.3128 69.9008 83.3495 69.9559C83.4045 70.0109 83.4228 70.0751 83.4045 70.1484L83.377 70.3685C83.3219 70.7537 83.4136 71.1205 83.6521 71.4689C83.8905 71.8174 84.239 72.1017 84.6975 72.3217C85.1743 72.5235 85.7153 72.6244 86.3206 72.6244C87.2926 72.6244 88.0996 72.3859 88.7415 71.9091C89.4017 71.4139 89.7319 70.8087 89.7319 70.0934C89.7319 69.6899 89.5943 69.3598 89.3192 69.103C89.0624 68.8463 88.7507 68.6445 88.3838 68.4978C88.0354 68.3511 87.4668 68.1493 86.6782 67.8926C85.7795 67.5991 85.0368 67.324 84.4499 67.0673C83.8813 66.7922 83.3953 66.4254 82.9918 65.9669C82.6067 65.5083 82.4141 64.9306 82.4141 64.2337C82.4141 64.0503 82.4233 63.9036 82.4416 63.7935C82.5883 62.6198 83.1477 61.6844 84.1197 60.9875C85.1101 60.2905 86.3297 59.9421 87.7786 59.9421C89.1725 59.9421 90.2729 60.263 91.0799 60.9049C91.9052 61.5285 92.3178 62.3355 92.3178 63.3259C92.3178 63.5093 92.3087 63.6468 92.2903 63.7385L92.2628 63.821C92.2261 64.0044 92.1253 64.0961 91.9602 64.0961H90.7222C90.6305 64.0961 90.5572 64.0686 90.5021 64.0136C90.4655 63.9586 90.4563 63.8944 90.4746 63.821L90.5021 63.7385C90.5755 63.1149 90.3463 62.5922 89.8144 62.1704C89.2825 61.7486 88.5306 61.5377 87.5585 61.5377C86.6048 61.5377 85.8162 61.7486 85.1926 62.1704C84.5874 62.5922 84.2848 63.1608 84.2848 63.8761C84.2848 64.4263 84.5232 64.8481 85.0001 65.1415C85.4769 65.435 86.2289 65.7468 87.2559 66.0769C88.2096 66.3703 88.9707 66.6454 89.5393 66.9022C90.1078 67.1406 90.603 67.4983 91.0248 67.9751C91.4467 68.4336 91.6576 69.0205 91.6576 69.7358C91.6576 69.9375 91.6484 70.0934 91.6301 70.2034C91.4833 71.3772 90.9056 72.3309 89.8969 73.0645C88.9065 73.7798 87.6686 74.1374 86.183 74.1374Z" fill="#51E678"/>
</g>
<defs>
<clipPath id="clip0">
<rect width="95" height="79" fill="white"/>
</clipPath>
</defs>
</svg>
